<svg xmlns="http://www.w3.org/2000/svg" xmlns:xlink="http://www.w3.org/1999/xlink" contentStyleType="text/css" data-diagram-type="DESCRIPTION" height="985px" preserveAspectRatio="none" style="width:2012px;height:985px;background:#FFFFFF;" version="1.1" viewBox="0 0 2012 985" width="2012px" zoomAndPan="magnify"><title>SpendSnap &#8212; System Architecture (Client-Server with a BaaS backend)</title><defs/><g><g class="title" data-source-line="4"><text fill="#000000" font-family="sans-serif" font-size="14" font-weight="bold" lengthAdjust="spacing" textLength="510.1318" x="744.1469" y="23.5352">SpendSnap &#8212; System Architecture (Client-Server with a BaaS backend)</text></g><!--cluster DEVICE--><g class="cluster" data-entity="DEVICE" data-source-line="31" data-uid="ent0003" id="cluster_DEVICE"><polygon fill="#F8FAFC" points="520.4286,53.4883,530.4286,43.4883,1302.4286,43.4883,1302.4286,672.1783,1292.4286,682.1783,520.4286,682.1783,520.4286,53.4883" style="stroke:#94A3B8;stroke-width:1;"/><line style="stroke:#94A3B8;stroke-width:1;" x1="1292.4286" x2="1302.4286" y1="53.4883" y2="43.4883"/><line style="stroke:#94A3B8;stroke-width:1;" x1="520.4286" x2="1292.4286" y1="53.4883" y2="53.4883"/><line style="stroke:#94A3B8;stroke-width:1;" x1="1292.4286" x2="1292.4286" y1="53.4883" y2="682.1783"/><text fill="#000000" font-family="sans-serif" font-size="14" font-weight="bold" lengthAdjust="spacing" textLength="214.792" x="800.0326" y="70.0234">Mobile Device (iOS / Android)</text></g><!--cluster CLIENT--><g class="cluster" data-entity="CLIENT" data-source-line="33" data-uid="ent0004" id="cluster_CLIENT"><path d="M556.4286,203.9383 L896.3895,203.9383 A6,6 0 0 1 900.3895,207.9383 L907.3895,226.4266 L935.4286,226.4266 A4,4 0 0 1 939.4286,230.4266 L939.4286,646.1783 A4,4 0 0 1 935.4286,650.1783 L556.4286,650.1783 A4,4 0 0 1 552.4286,646.1783 L552.4286,207.9383 A4,4 0 0 1 556.4286,203.9383" fill="none" style="stroke:#000000;stroke-width:1.5;"/><line style="stroke:#000000;stroke-width:1.5;" x1="552.4286" x2="907.3895" y1="226.4266" y2="226.4266"/><text fill="#000000" font-family="sans-serif" font-size="14" font-weight="bold" lengthAdjust="spacing" textLength="341.9609" x="556.4286" y="219.4734">SpendSnap Client (React Native + Expo SDK 54)</text></g><!--cluster FIREBASE--><g class="cluster" data-entity="FIREBASE" data-source-line="44" data-uid="ent0011" id="cluster_FIREBASE"><path d="M32.591,541.884 C40.7948,529.7862 49.9156,528.1332 59.753,540.0351 C66.8281,525.9113 81.8736,523.7538 91.8314,536.6075 C100.5712,523.0982 108.8537,523.6995 117.1844,536.9944 C125.6009,519.9351 139.7693,520.62 148.8782,536.3246 C155.1271,521.3871 166.2655,519.218 176.4851,532.4305 C184.5318,517.219 198.3292,517.3434 205.8359,532.9449 C211.9477,518.9578 220.5351,519.5338 231.0114,528.0653 C242.2351,513.9101 251.8085,514.4133 261.8585,529.3114 C269.674,514.7581 282.8751,517.5701 289.6792,530.3412 C302.0446,516.5629 311.2566,519.7673 319.6391,534.5231 C327.2946,521.914 339.1397,523.3866 346.5199,534.8309 C355.4244,524.2925 365.9043,522.7901 372.3544,537.3566 C382.3294,523.5119 394.9484,525.1268 401.8845,540.4348 C413.539,522.6534 428.0978,527.2192 436.4286,543.7783 C438.765,545.2347 438.4747,546.9521 436.5821,548.5448 C452.9284,554.0917 455.0731,563.2181 442.5502,575.2232 C457.5182,585.7624 457.8898,595.2565 442.8052,606.0443 C454.8812,615.3451 454.7178,624.4887 443.6011,634.4397 C458.1742,643.3382 459.1224,656.2621 443.3914,664.9523 C454.9415,673.6179 453.1991,685.7578 441.3212,692.6737 C456.4026,700.3432 456.9041,713.076 442.7322,722.146 C458.1023,728.7975 456.0239,737.133 446.9929,747.8321 C461.1379,759.7441 460.2306,769.8351 443.5012,778.1967 C458.9078,786.8635 459.299,798.7859 444.811,808.7349 C457.5002,818.0551 455.9633,825.9358 443.1448,833.5428 C460.5801,844.9013 456.0843,857.2568 441.6648,867.2151 C455.7153,878.6431 452.6878,887.3415 438.3927,895.4892 C450.8054,903.1524 454.4267,911.9758 441.498,922.5472 C455.5601,938.721 447.8147,951.6038 429.4286,956.1083 C431.3444,956.0848 432.4016,957.3373 431.3488,959.1735 C421.2748,971.4565 410.899,974.3084 401.998,957.9706 C395.2273,970.4999 385.4431,971.3106 377.6737,958.9465 C368.3438,975.4705 355.307,974.1 346.6425,958.3076 C338.1793,974.4274 327.0245,977.2695 315.42,961.3708 C308.1496,972.1948 295.9216,972.2319 289.8726,960.0163 C281.6138,975.4121 267.7827,972.5778 260.7055,958.8335 C253.9292,974.0163 239.8193,976.5573 230.7166,961.1113 C222.5237,973.3454 213.9888,975.0244 205.1912,961.7156 C194.4259,975.7851 185.7268,972.455 177.5638,959.0946 C167.3144,974.282 157.373,978.1104 144.2111,962.2203 C136.4982,973.4863 123.0535,974.652 117.1083,960.3466 C106.1751,974.0583 96.814,974.6574 87.8179,958.4501 C79.2495,973.4688 68.9733,972.1207 58.2227,960.9125 C42.4386,975.3929 26.8452,969.0977 22.4286,949.1083 C25.0883,947.3363 26.521,948.7395 27.0098,951.3682 C11.6758,945.2551 14.0419,931.736 25.3407,923.9987 C10.5599,916.6015 11.8017,904.6625 23.7449,895.7553 C12.3493,885.5541 9.783,874.6309 25.451,865.9805 C13.3371,858.0549 12.1618,845.6563 24.7099,837.0979 C7.8742,828.8786 8.6248,813.2133 24.466,804.7476 C11.4972,797.8728 10.3055,783.7554 23.9911,776.4336 C10.448,770.3991 11.099,758.2483 23.1627,751.3676 C8.8447,740.3731 10.0898,729.9972 23.8214,719.5841 C10.4996,712.1406 11.1827,699.2487 23.9108,691.8892 C8.9319,684.3282 8.6801,673.3484 22.6616,664.468 C9.0203,652.8384 10.3538,641.1006 24.9781,631.4544 C13.3656,623.4189 12.642,614.2612 23.8475,605.2414 C9.2058,594.573 13.0661,583.9195 26.5943,575.8869 C6,562.8005 7.6304,546.7924 29.4286,536.7783 C33.2102,536.7072 33.8926,538.8066 32.591,541.884" fill="#FFFBEB" style="stroke:#CA8A04;stroke-width:1;"/><text fill="#000000" font-family="sans-serif" font-size="14" font-weight="bold" lengthAdjust="spacing" textLength="109.0537" x="174.9017" y="555.3134">Firebase (BaaS)</text></g><!--entity NOTIF--><g class="entity" data-entity="NOTIF" data-source-line="39" data-uid="ent0008" id="entity_NOTIF"><rect fill="#EFF6FF" height="49.4434" rx="4" ry="4" style="stroke:#2563EB;stroke-width:0.5;" width="146.2734" x="963.2886" y="570.2583"/><text fill="#0F172A" font-family="sans-serif" font-size="14" lengthAdjust="spacing" textLength="126.2734" x="973.2886" y="593.7934">expo-notifications</text><text fill="#0F172A" font-family="sans-serif" font-size="11" lengthAdjust="spacing" textLength="99.1665" x="973.2886" y="607.3813">local budget alerts</text></g><!--entity STORE--><g class="entity" data-entity="STORE" data-source-line="40" data-uid="ent0009" id="entity_STORE"><rect fill="#EFF6FF" height="49.4434" rx="4" ry="4" style="stroke:#2563EB;stroke-width:0.5;" width="141.8379" x="1144.5086" y="570.2583"/><text fill="#0F172A" font-family="sans-serif" font-size="14" lengthAdjust="spacing" textLength="91.335" x="1154.5086" y="593.7934">AsyncStorage</text><text fill="#0F172A" font-family="sans-serif" font-size="11" lengthAdjust="spacing" textLength="121.8379" x="1154.5086" y="607.3813">auth token persistence</text></g><!--entity QA--><g class="entity" data-entity="QA" data-source-line="41" data-uid="ent0010" id="entity_QA"><rect fill="#EFF6FF" height="49.4434" rx="4" ry="4" style="stroke:#2563EB;stroke-width:0.5;" width="155.5088" x="720.6786" y="83.4883"/><text fill="#0F172A" font-family="sans-serif" font-size="14" lengthAdjust="spacing" textLength="135.5088" x="730.6786" y="107.0234">expo-quick-actions</text><text fill="#0F172A" font-family="sans-serif" font-size="11" lengthAdjust="spacing" textLength="96.5454" x="730.6786" y="120.6113">app-icon shortcut</text></g><!--entity UI--><g class="entity" data-entity="UI" data-source-line="34" data-uid="ent0005" id="entity_UI"><rect fill="#EFF6FF" height="49.4434" rx="4" ry="4" style="stroke:#2563EB;stroke-width:0.5;" width="153.52" x="721.6686" y="246.9383"/><text fill="#0F172A" font-family="sans-serif" font-size="14" lengthAdjust="spacing" textLength="124.8994" x="731.6686" y="270.4734">Presentation Layer</text><text fill="#0F172A" font-family="sans-serif" font-size="11" lengthAdjust="spacing" textLength="133.52" x="731.6686" y="284.0613">screens/ + components/</text></g><!--entity SVC--><g class="entity" data-entity="SVC" data-source-line="35" data-uid="ent0006" id="entity_SVC"><rect fill="#EFF6FF" height="62.3984" rx="4" ry="4" style="stroke:#2563EB;stroke-width:0.5;" width="149.6958" x="576.5786" y="388.3783"/><text fill="#0F172A" font-family="sans-serif" font-size="14" lengthAdjust="spacing" textLength="87.8008" x="586.5786" y="411.9134">Service Layer</text><text fill="#0F172A" font-family="sans-serif" font-size="11" lengthAdjust="spacing" textLength="103.27" x="586.5786" y="425.5013">services/firebase.js</text><text fill="#0F172A" font-family="sans-serif" font-size="11" lengthAdjust="spacing" textLength="129.6958" x="586.5786" y="438.4564">(the only Firebase seam)</text></g><!--entity UTILS--><g class="entity" data-entity="UTILS" data-source-line="36" data-uid="ent0007" id="entity_UTILS"><rect fill="#EFF6FF" height="62.3984" rx="4" ry="4" style="stroke:#2563EB;stroke-width:0.5;" width="164.5146" x="743.1686" y="563.7783"/><text fill="#0F172A" font-family="sans-serif" font-size="14" lengthAdjust="spacing" textLength="85.6816" x="753.1686" y="587.3134">Pure Utilities</text><text fill="#0F172A" font-family="sans-serif" font-size="11" lengthAdjust="spacing" textLength="131.7261" x="753.1686" y="600.9013">utils/ &#8212; currency, dates,</text><text fill="#0F172A" font-family="sans-serif" font-size="11" lengthAdjust="spacing" textLength="144.5146" x="753.1686" y="613.8564">expenses, budget, pieMath</text></g><!--entity AUTH--><g class="entity" data-entity="AUTH" data-source-line="45" data-uid="ent0012" id="entity_AUTH"><rect fill="#EFF6FF" height="62.3984" rx="4" ry="4" style="stroke:#2563EB;stroke-width:0.5;" width="182.8677" x="245.9986" y="563.7783"/><text fill="#0F172A" font-family="sans-serif" font-size="14" lengthAdjust="spacing" textLength="160.5078" x="255.9986" y="587.3134">Firebase Authentication</text><text fill="#0F172A" font-family="sans-serif" font-size="11" lengthAdjust="spacing" textLength="162.8677" x="255.9986" y="600.9013">email/password + anonymous</text><text fill="#0F172A" font-family="sans-serif" font-size="11" lengthAdjust="spacing" textLength="87.189" x="255.9986" y="613.8564">issues ID tokens</text></g><!--entity RULES--><g class="entity" data-entity="RULES" data-source-line="46" data-uid="ent0013" id="entity_RULES"><rect fill="#EFF6FF" height="62.3984" rx="4" ry="4" style="stroke:#2563EB;stroke-width:0.5;" width="180.8857" x="29.9886" y="563.7783"/><text fill="#0F172A" font-family="sans-serif" font-size="14" lengthAdjust="spacing" textLength="158.4912" x="39.9886" y="587.3134">Firestore Security Rules</text><text fill="#0F172A" font-family="sans-serif" font-size="11" lengthAdjust="spacing" textLength="160.8857" x="39.9886" y="600.9013">server-enforced authorization</text><text fill="#0F172A" font-family="sans-serif" font-size="11" lengthAdjust="spacing" textLength="81.8394" x="39.9886" y="613.8564">(firestore.rules)</text></g><!--entity FS--><g class="entity" data-entity="FS" data-source-line="47" data-uid="ent0014" id="entity_FS"><path d="M113.5086,757.7183 C113.5086,747.7183 175.4309,747.7183 175.4309,747.7183 C175.4309,747.7183 237.3533,747.7183 237.3533,757.7183 L237.3533,809.1167 C237.3533,819.1167 175.4309,819.1167 175.4309,819.1167 C175.4309,819.1167 113.5086,819.1167 113.5086,809.1167 L113.5086,757.7183" fill="#FEF9C3" style="stroke:#CA8A04;stroke-width:0.5;"/><path d="M113.5086,757.7183 C113.5086,767.7183 175.4309,767.7183 175.4309,767.7183 C175.4309,767.7183 237.3533,767.7183 237.3533,757.7183" fill="none" style="stroke:#CA8A04;stroke-width:0.5;"/><text fill="#000000" font-family="sans-serif" font-size="14" lengthAdjust="spacing" textLength="103.8447" x="123.5086" y="785.2534">Cloud Firestore</text><text fill="#000000" font-family="sans-serif" font-size="11" lengthAdjust="spacing" textLength="84.0684" x="123.5086" y="798.8413">document store</text><text fill="#000000" font-family="sans-serif" font-size="11" lengthAdjust="spacing" textLength="88.1235" x="123.5086" y="811.7964">users/ , groups/</text></g><!--entity IDX--><g class="entity" data-entity="IDX" data-source-line="48" data-uid="ent0015" id="entity_IDX"><rect fill="#EFF6FF" height="49.4434" rx="4" ry="4" style="stroke:#2563EB;stroke-width:0.5;" width="238.7002" x="56.0786" y="898.6683"/><text fill="#0F172A" font-family="sans-serif" font-size="14" lengthAdjust="spacing" textLength="130.2725" x="66.0786" y="922.2034">Composite Indexes</text><text fill="#0F172A" font-family="sans-serif" font-size="11" lengthAdjust="spacing" textLength="218.7002" x="66.0786" y="935.7913">groupIds ARRAY_CONTAINS + date DESC</text></g><!--entity USER--><g class="entity" data-entity="USER" data-source-line="29" data-uid="ent0002" id="entity_USER"><ellipse cx="1468.4312" cy="753.6783" fill="#F1F1F1" rx="8" ry="8" style="stroke:#181818;stroke-width:0.5;"/><path d="M1468.4312,761.6783 L1468.4312,788.6783 M1455.4312,769.6783 L1481.4312,769.6783 M1468.4312,788.6783 L1455.4312,803.6783 M1468.4312,788.6783 L1481.4312,803.6783" fill="none" style="stroke:#181818;stroke-width:0.5;"/><text fill="#000000" font-family="sans-serif" font-size="14" lengthAdjust="spacing" textLength="30.3652" x="1453.2486" y="818.7134">User</text></g><g class="entity" data-entity="GMN29" data-source-line="68" data-uid="ent0030" id="entity_GMN29"><path d="M1321.5986,571.0083 L1321.5986,618.9399 A4,4 0 0 0 1325.5986,622.9399 L1615.2675,622.9399 A4,4 0 0 0 1619.2675,618.9399 L1619.2675,577.0083 L1609.2675,567.0083 L1325.5986,567.0083 A4,4 0 0 0 1321.5986,571.0083" fill="#FEFFDD" style="stroke:#181818;stroke-width:0.5;"/><path d="M1609.2675,567.0083 L1609.2675,575.0083 A2,2 0 0 0 1611.2675,577.0083 L1619.2675,577.0083 L1609.2675,567.0083" fill="#FEFFDD" style="stroke:#181818;stroke-width:1;"/><text fill="#000000" font-family="sans-serif" font-size="13" lengthAdjust="spacing" textLength="100.8325" x="1327.5986" y="584.5766">Authorization is</text><text fill="#000000" font-family="sans-serif" font-size="13" font-weight="bold" lengthAdjust="spacing" textLength="37.394" x="1432.5444" y="584.5766">never</text><text fill="#000000" font-family="sans-serif" font-size="13" lengthAdjust="spacing" textLength="128.9844" x="1474.0517" y="584.5766">trusted to the client.</text><text fill="#000000" font-family="sans-serif" font-size="13" lengthAdjust="spacing" textLength="249.3613" x="1327.5986" y="599.8872">Rules re-evaluate every request against</text><text fill="#000000" font-family="sans-serif" font-size="13" lengthAdjust="spacing" textLength="276.6689" x="1327.5986" y="615.1977">request.auth.uid on Google's infrastructure.</text></g><g class="entity" data-entity="GMN32" data-source-line="74" data-uid="ent0033" id="entity_GMN32"><path d="M1725.4286,395.6083 L1725.4286,443.5399 A4,4 0 0 0 1729.4286,447.5399 L2001.4256,447.5399 A4,4 0 0 0 2005.4256,443.5399 L2005.4256,401.6083 L1995.4256,391.6083 L1729.4286,391.6083 A4,4 0 0 0 1725.4286,395.6083" fill="#FEFFDD" style="stroke:#181818;stroke-width:0.5;"/><path d="M1995.4256,391.6083 L1995.4256,399.6083 A2,2 0 0 0 1997.4256,401.6083 L2005.4256,401.6083 L1995.4256,391.6083" fill="#FEFFDD" style="stroke:#181818;stroke-width:1;"/><text fill="#000000" font-family="sans-serif" font-size="13" lengthAdjust="spacing" textLength="175.4683" x="1731.4286" y="409.1766">Strict one-way dependency:</text><text fill="#000000" font-family="sans-serif" font-size="13" lengthAdjust="spacing" textLength="222.6504" x="1731.4286" y="424.4872">presentation &#8594; service &#8594; backend.</text><text fill="#000000" font-family="sans-serif" font-size="13" lengthAdjust="spacing" textLength="258.9971" x="1731.4286" y="439.7977">Utilities depend on nothing app-specific.</text></g><!--link USER to UI--><g class="link" data-entity-1="USER" data-entity-2="UI" data-source-line="51" data-uid="lnk16" id="link_USER_UI"><path d="M1483.8986,779.3883 C1518.6486,771.6583 1602.4486,747.5883 1636.4286,690.1783 C1674.7686,625.3783 1681.4786,581.0983 1636.4286,520.7783 C1634.9486,518.7983 1088.4248,357.931 881.3648,297.041" fill="none" id="USER-to-UI" style="stroke:#475569;stroke-width:1;"/><polygon fill="#475569" points="875.6086,295.3483,883.1145,301.7249,880.4054,296.7589,885.3714,294.0499,875.6086,295.3483" style="stroke:#475569;stroke-width:1;"/><text fill="#000000" font-family="sans-serif" font-size="13" lengthAdjust="spacing" textLength="95.9893" x="1609.8986" y="501.8466">taps / gestures</text></g><!--link QA to UI--><g class="link" data-entity-1="QA" data-entity-2="UI" data-source-line="52" data-uid="lnk17" id="link_QA_UI"><path d="M798.4286,133.3883 C798.4286,163.9083 798.4286,210.1083 798.4286,240.5883" fill="none" id="QA-to-UI" style="stroke:#475569;stroke-width:1;"/><polygon fill="#475569" points="798.4286,246.5883,802.4286,237.5883,798.4286,241.5883,794.4286,237.5883,798.4286,246.5883" style="stroke:#475569;stroke-width:1;"/><text fill="#000000" font-family="sans-serif" font-size="13" lengthAdjust="spacing" textLength="58.1445" x="799.4286" y="176.5066">deep link</text><text fill="#000000" font-family="sans-serif" font-size="13" lengthAdjust="spacing" textLength="79.5171" x="710.3529" y="153.5494">Log Expense</text></g><!--link NOTIF to USER--><g class="link" data-entity-1="NOTIF" data-entity-2="USER" data-source-line="53" data-uid="lnk18" id="link_NOTIF_USER"><path d="M1053.5786,620.0283 C1070.1186,641.4983 1097.0786,672.2583 1127.4286,690.1783 C1240.4386,756.9083 1396.824,775.9864 1447.054,780.6264" fill="none" id="NOTIF-to-USER" style="stroke:#475569;stroke-width:1;"/><polygon fill="#475569" points="1453.0286,781.1783,1444.4346,776.3674,1448.0497,780.7184,1443.6988,784.3335,1453.0286,781.1783" style="stroke:#475569;stroke-width:1;"/><text fill="#000000" font-family="sans-serif" font-size="13" lengthAdjust="spacing" textLength="154.7559" x="1170.8286" y="711.7466">80% / 100% budget alert</text></g><!--link UI to SVC--><g class="link" data-entity-1="UI" data-entity-2="SVC" data-source-line="55" data-uid="lnk19" id="link_UI_SVC"><path d="M721.3386,284.7983 C675.0386,293.8383 622.4686,307.8283 608.4286,326.3783 C594.2586,345.1183 602.695,364.5635 617.645,383.4535" fill="none" id="UI-to-SVC" style="stroke:#475569;stroke-width:1;"/><polygon fill="#475569" points="621.3686,388.1583,618.9198,378.6187,618.2656,384.2376,612.6467,383.5834,621.3686,388.1583" style="stroke:#475569;stroke-width:1;"/><text fill="#000000" font-family="sans-serif" font-size="13" lengthAdjust="spacing" textLength="153.6895" x="622.5714" y="339.9466">intention-revealing calls</text><text fill="#000000" font-family="sans-serif" font-size="13" lengthAdjust="spacing" textLength="179.9751" x="609.4286" y="355.2572">(saveExpense, subscribeTo*)</text></g><!--link UI to UTILS--><g class="link" data-entity-1="UI" data-entity-2="UTILS" data-source-line="56" data-uid="lnk20" id="link_UI_UTILS"><path d="M796.5686,296.6883 C793.6786,340.1283 789.5986,434.4583 801.4286,512.7783 C804.0186,529.9283 807.4382,542.8205 812.4082,557.8805" fill="none" id="UI-to-UTILS" style="stroke:#475569;stroke-width:1;stroke-dasharray:7,7;"/><polygon fill="#475569" points="814.2886,563.5783,815.2666,553.7781,812.7216,558.8302,807.6696,556.2852,814.2886,563.5783" style="stroke:#475569;stroke-width:1;"/><text fill="#000000" font-family="sans-serif" font-size="13" lengthAdjust="spacing" textLength="109.4907" x="795.9986" y="424.6466">&#171;uses&#187; pure logic</text></g><!--link SVC to UTILS--><g class="link" data-entity-1="SVC" data-entity-2="UTILS" data-source-line="57" data-uid="lnk21" id="link_SVC_UTILS"><path d="M636.9286,451.1883 C629.8386,471.1183 625.6486,496.3683 640.4286,512.7783 C651.7886,525.3983 700.4686,514.9883 716.4286,520.7783 C742.9986,530.4183 764.6365,544.2482 784.8065,559.7082" fill="none" id="SVC-to-UTILS" style="stroke:#475569;stroke-width:1;stroke-dasharray:7,7;"/><polygon fill="#475569" points="789.5686,563.3583,784.8588,554.7085,785.6002,560.3166,779.9921,561.0579,789.5686,563.3583" style="stroke:#475569;stroke-width:1;"/><text fill="#000000" font-family="sans-serif" font-size="13" lengthAdjust="spacing" textLength="145.0249" x="641.4286" y="501.8466">&#171;uses&#187; formatCurrency</text></g><!--link SVC to NOTIF--><g class="link" data-entity-1="SVC" data-entity-2="NOTIF" data-source-line="58" data-uid="lnk22" id="link_SVC_NOTIF"><path d="M726.5986,443.2783 C782.2786,461.2783 859.2986,488.6883 923.4286,520.7783 C951.6486,534.8983 976.6134,551.0372 998.5534,566.3972" fill="none" id="SVC-to-NOTIF" style="stroke:#475569;stroke-width:1;"/><polygon fill="#475569" points="1003.4686,569.8383,998.3898,561.3999,999.3726,566.9707,993.8017,567.9535,1003.4686,569.8383" style="stroke:#475569;stroke-width:1;"/><text fill="#000000" font-family="sans-serif" font-size="13" lengthAdjust="spacing" textLength="174.6748" x="903.2886" y="501.8466">scheduleNotificationAsync()</text></g><!--link SVC to STORE--><g class="link" data-entity-1="SVC" data-entity-2="STORE" data-source-line="59" data-uid="lnk23" id="link_SVC_STORE"><path d="M726.7686,444.6983 C735.6886,447.0083 744.7186,449.1183 753.4286,450.7783 C899.3886,478.6783 949.8486,422.2183 1086.4286,480.7783 C1132.4386,500.5083 1169.7364,538.5135 1192.6064,565.4635" fill="none" id="SVC-to-STORE" style="stroke:#475569;stroke-width:1;"/><polygon fill="#475569" points="1196.4886,570.0383,1193.7151,560.588,1193.2534,566.226,1187.6154,565.7642,1196.4886,570.0383" style="stroke:#475569;stroke-width:1;"/><text fill="#000000" font-family="sans-serif" font-size="13" lengthAdjust="spacing" textLength="93.666" x="1138.9986" y="501.8466">persist session</text></g><!--link SVC to AUTH--><g class="link" data-entity-1="SVC" data-entity-2="AUTH" data-source-line="61" data-uid="lnk24" id="link_SVC_AUTH"><path d="M576.3886,423.9083 C491.5086,429.4383 361.0686,443.8583 330.4286,480.7783 C311.5686,503.5083 315.4019,532.7468 323.3119,557.7968" fill="none" id="SVC-to-AUTH" style="stroke:#475569;stroke-width:1;"/><polygon fill="#475569" points="325.1186,563.5183,326.2229,553.7315,323.613,558.7503,318.5942,556.1404,325.1186,563.5183" style="stroke:#475569;stroke-width:1;"/><text fill="#000000" font-family="sans-serif" font-size="13" lengthAdjust="spacing" textLength="165.8706" x="331.4286" y="494.3466">HTTPS &#8212; sign in / sign up</text><text fill="#000000" font-family="sans-serif" font-size="13" lengthAdjust="spacing" textLength="133.0088" x="347.8595" y="509.6572">onAuthStateChanged</text></g><!--link SVC to RULES--><g class="link" data-entity-1="SVC" data-entity-2="RULES" data-source-line="62" data-uid="lnk25" id="link_SVC_RULES"><path d="M576.1386,424.4083 C440.9786,431.9883 168.3586,450.8383 137.4286,480.7783 C115.7286,501.7883 113.3293,531.7767 115.3493,557.5267" fill="none" id="SVC-to-RULES" style="stroke:#475569;stroke-width:1;"/><polygon fill="#475569" points="115.8186,563.5083,119.1024,554.223,115.4275,558.5236,111.1269,554.8487,115.8186,563.5083" style="stroke:#475569;stroke-width:1;"/><text fill="#000000" font-family="sans-serif" font-size="13" lengthAdjust="spacing" textLength="113.8516" x="167.2469" y="494.3466">every read &amp; write</text><text fill="#000000" font-family="sans-serif" font-size="13" lengthAdjust="spacing" textLength="171.4883" x="138.4286" y="509.6572">carries the caller's ID token</text></g><!--link RULES to FS--><g class="link" data-entity-1="RULES" data-entity-2="FS" data-source-line="63" data-uid="lnk26" id="link_RULES_FS"><path d="M129.3886,626.3483 C139.1586,659.4683 153.0813,706.6534 163.3713,741.5434" fill="none" id="RULES-to-FS" style="stroke:#475569;stroke-width:1;"/><polygon fill="#475569" points="165.0686,747.2983,166.3592,737.5344,163.6541,742.5025,158.686,739.7974,165.0686,747.2983" style="stroke:#475569;stroke-width:1;"/><text fill="#000000" font-family="sans-serif" font-size="13" lengthAdjust="spacing" textLength="78.0254" x="155.4686" y="711.7466">allow / deny</text></g><!--link FS to SVC--><g class="link" data-entity-1="FS" data-entity-2="SVC" data-source-line="64" data-uid="lnk27" id="link_FS_SVC"><path d="M237.6186,776.1183 C298.0386,766.9183 388.8486,744.4783 446.4286,690.1783 C505.5786,634.4083 465.4986,584.9383 515.4286,520.7783 C537.3086,492.6583 564.002,471.888 591.322,454.438" fill="none" id="FS-to-SVC" style="stroke:#475569;stroke-width:1;"/><polygon fill="#475569" points="596.3786,451.2083,586.6406,452.6819,592.1648,453.8997,590.9469,459.4239,596.3786,451.2083" style="stroke:#475569;stroke-width:1;"/><text fill="#000000" font-family="sans-serif" font-size="13" lengthAdjust="spacing" textLength="208.5967" x="516.4286" y="592.5466">onSnapshot streams (WebSocket)</text><text fill="#000000" font-family="sans-serif" font-size="13" lengthAdjust="spacing" textLength="182.3999" x="529.5269" y="607.8572">real-time document changes</text></g><!--link FS to IDX--><g class="link" data-entity-1="FS" data-entity-2="IDX" data-source-line="65" data-uid="lnk28" id="link_FS_IDX"><path d="M175.4286,819.5883 C175.4286,844.3383 175.4286,870.8083 175.4286,892.5683" fill="none" id="FS-to-IDX" style="stroke:#475569;stroke-width:1;stroke-dasharray:7,7;"/><polygon fill="#475569" points="175.4286,898.5683,179.4286,889.5683,175.4286,893.5683,171.4286,889.5683,175.4286,898.5683" style="stroke:#475569;stroke-width:1;"/><text fill="#000000" font-family="sans-serif" font-size="13" lengthAdjust="spacing" textLength="224.9673" x="176.4286" y="865.2366">&#171;uses&#187; for collection-group queries</text></g><!--link RULES to GMN29--><g class="link" data-entity-1="RULES" data-entity-2="GMN29" data-source-line="68" data-uid="lnk31" id="link_RULES_GMN29"><path d="M145.1586,563.4283 C168.0386,537.0083 204.6786,501.2083 245.9286,485.7783 C354.0486,445.3283 1173.5486,455.4283 1284.9286,485.7783 C1342.2586,501.3983 1399.9286,539.7383 1435.4086,566.5583" fill="none" id="RULES-GMN29" style="stroke:#475569;stroke-width:1;stroke-dasharray:7,7;"/></g><!--link CLIENT to GMN32--><g class="link" data-entity-1="CLIENT" data-entity-2="GMN32" data-source-line="74" data-uid="lnk34" id="link_CLIENT_GMN32"><path d="M939.8959,272.7489 C944.8039,272.8066 951.7514,272.8949 960.4898,273.0228 C977.9665,273.2786 1002.6066,273.6927 1032.4215,274.3372 C1092.0514,275.6261 1172.3804,277.8364 1257.4998,281.5445 C1427.7386,288.9608 1617.1386,302.3683 1698.4286,326.3783 C1745.9086,340.4083 1794.8886,369.4883 1827.4186,391.2683" fill="none" id="CLIENT-GMN32" style="stroke:#475569;stroke-width:1;stroke-dasharray:7,7;"/></g><!--SRC=[TLRjRjis5FslfxZmiDNEOYTfapODWW2AOwt6qgIrd6u32WoqHDjiP58bgRZkK62_zW33dh1FiaDATUZ4pPyOvBtdVl2SU_M4qfBBF9MifAz__qVfobY-e7REoqAj5bpQ3Z6TpONbcQqqxqLFA9shfI4xvvGL0XPTm_KTrsJAGjWJVp7uL2fYPKaYDDobH6W-OOP_EsyyhU2w5qLMs89lJoWESg1sluwRrjvBOUV4w9onb2OikuLx9uhChP0bqspXpsPQLJBlgq9f-Y7nVu65cRDSBOMSqPGLXWSttYrJMYBESN0UQwsM3TpXYwEZvo-3oqmjIYMHOMfNA4WZRIPd1TzcGdz5XDGVP3X8akV843TAvrmtfq-FdZyRdECqKT8sP_l9mOkdSVGbmCwPPRx9Mw6JGVAo_-mXT3y-ZlSFDs2aohy7SPp4IVyXnCl3-DdvyGP4LgWg_mv6afpxMhQd4R7Cug1r0uQqY1cwIGUZAF8vjLwhYK1VB_YToC06SPtI7iKorqha7MzzCNWtx0yG6G5AX6OpkDqJg-OFjKSSOUYAMN77wUUQjUd5htHqMCFqBuU3gx4lW88dQxtHtE07_9IaIxRY-hqyDU8pFpauE3EPvboQFG2kNSpUwPwxFwjh6Ju4T4nsjJp2gi_DthGHJk-3QP02gxQJafB5wbvVXhD59uoPlki_gi9fwSOAg5Pm4-1LE4F-JdvPfJMNsMhNiOgRtSV1-IUqrU2A9bK-un1vAVXhPkSR5O-7bodYVt4F4gG0PzMLoegfo7mtmpGAbR6YGILMS6rDY7brFHucct2nMSai1N7mtW4Ggp0WhC9We99h8p1HPCOtkZE-7WssfFQn4jbj5oHva1f6MrTaU7mpLzfcbGt1tZevHZNtM-iNQRlvLDCg6Ou6vt4wyCGAGgvjOoICawOdORCNJ1Hx9JDc2Tc0OKmgkLgeQWihX34LDpIyg4lVw5ryCtxrEBP1vp1_EHvTs1MDgcA35lMmxd8vLJhZERcsAYq- -oIti7Bw3RAd7T867KStbmD7YFMiQlLzlzPf142voYgtYSXVF0vK8J7GTPVSW2atfPQacsNstK-3JK93cVDF6_Lvzs6Exen6yHz_zg-lnl7mAaMN7VSnKz9-23sy-DszinjCrEsUGTM4vSTAWs4qGn5GbudUnlTthKirSpF6oQL5EUSb5KBUHfx8jPd3Eg7Z_H-1SR2FVo7x4MlepQ1bM0bf7KUKx6f-nrdXrXS4Kw2ajc5tl8cqIwQQO2Q92H-hdOx3wFNEQaK2vVGKxJDdPrIwQL2ecSWYXx_L1W-_OBRVp0Hlv_Af2pWXayrvZgU-2WJj9Tdkh6szqc3R2163oXYOHMi3HqtSlngFtwH-11anaoWM7V6_gl8zEEyKac80y_uSgvNdQtTFBFYZ9Ng5rSjo-ecMu3CObJ6jCUdgBn9qYkidz_g8Qa-7aJW0tAibWkPShg8a3Hglf5iYKBvZ928i3BL_uvDKuTF3TjvB71LTAnQSripDV9R6uRZ6WZeFsWgE8Xy_PxgUX_InuYvPj_D0FYrcSqjgkXPE78hFVKxjx4XNyyuEMLrXmkKeA_Zswi772nezwV8xLbIEqz-wX61u2pPZGXeBo-QavoJUgqIEckaNfV0DWuu9ETKCbLVD5o6sAhaacrGdobgrSBdMwnDmgTK2YnOQx2xP2YrrczXHwCJjvt2PVltdNsgMdl_TVC-vxDURgl5tEI7WtF7UpMDJyipHBaZeVm00]--></g></svg>