<svg xmlns="http://www.w3.org/2000/svg" xmlns:xlink="http://www.w3.org/1999/xlink" contentStyleType="text/css" data-diagram-type="DESCRIPTION" height="863px" preserveAspectRatio="none" style="width:2310px;height:863px;background:#FFFFFF;" version="1.1" viewBox="0 0 2310 863" width="2310px" zoomAndPan="magnify"><title>SpendSnap &#8212; Component Diagram (Layered Client Architecture)</title><defs/><g><g class="title" data-source-line="4"><text fill="#000000" font-family="sans-serif" font-size="14" font-weight="bold" lengthAdjust="spacing" textLength="462.3418" x="917.1374" y="23.5352">SpendSnap &#8212; Component Diagram (Layered Client Architecture)</text></g><!--cluster ROOT--><g class="cluster" data-entity="ROOT" data-source-line="24" data-uid="ent0002" id="cluster_ROOT"><path d="M502.72,43.4883 L647.9661,43.4883 A6,6 0 0 1 651.9661,47.4883 L658.9661,65.9766 L732.72,65.9766 A4,4 0 0 1 736.72,69.9766 L736.72,249.3283 A4,4 0 0 1 732.72,253.3283 L502.72,253.3283 A4,4 0 0 1 498.72,249.3283 L498.72,47.4883 A4,4 0 0 1 502.72,43.4883" fill="#F8FAFC" style="stroke:#94A3B8;stroke-width:1.5;"/><line style="stroke:#94A3B8;stroke-width:1.5;" x1="498.72" x2="658.9661" y1="65.9766" y2="65.9766"/><text fill="#0F172A" font-family="sans-serif" font-size="14" font-weight="bold" lengthAdjust="spacing" textLength="147.2461" x="502.72" y="59.0234">1 &#183; Application Root</text></g><!--cluster SCREENS--><g class="cluster" data-entity="SCREENS" data-source-line="29" data-uid="ent0005" id="cluster_SCREENS"><path d="M268.72,302.3283 L724.3245,302.3283 A6,6 0 0 1 728.3245,306.3283 L735.3245,324.8166 L1166.72,324.8166 A4,4 0 0 1 1170.72,328.8166 L1170.72,398.7683 A4,4 0 0 1 1166.72,402.7683 L268.72,402.7683 A4,4 0 0 1 264.72,398.7683 L264.72,306.3283 A4,4 0 0 1 268.72,302.3283" fill="#F8FAFC" style="stroke:#94A3B8;stroke-width:1.5;"/><line style="stroke:#94A3B8;stroke-width:1.5;" x1="264.72" x2="735.3245" y1="324.8166" y2="324.8166"/><text fill="#0F172A" font-family="sans-serif" font-size="14" font-weight="bold" lengthAdjust="spacing" textLength="457.6045" x="268.72" y="317.8634">2 &#183; Presentation &#8212; screens/ (containers: state + subscriptions)</text></g><!--cluster COMPONENTS--><g class="cluster" data-entity="COMPONENTS" data-source-line="38" data-uid="ent0012" id="cluster_COMPONENTS"><path d="M930.72,509.2083 L1364.8596,509.2083 A6,6 0 0 1 1368.8596,513.2083 L1375.8596,531.6966 L1480.72,531.6966 A4,4 0 0 1 1484.72,535.6966 L1484.72,634.5983 A4,4 0 0 1 1480.72,638.5983 L930.72,638.5983 A4,4 0 0 1 926.72,634.5983 L926.72,513.2083 A4,4 0 0 1 930.72,509.2083" fill="#F8FAFC" style="stroke:#94A3B8;stroke-width:1.5;"/><line style="stroke:#94A3B8;stroke-width:1.5;" x1="926.72" x2="1375.8596" y1="531.6966" y2="531.6966"/><text fill="#0F172A" font-family="sans-serif" font-size="14" font-weight="bold" lengthAdjust="spacing" textLength="436.1396" x="930.72" y="524.7434">2b &#183; Presentation &#8212; components/ (reusable, presentational)</text></g><!--cluster SERVICES--><g class="cluster" data-entity="SERVICES" data-source-line="44" data-uid="ent0016" id="cluster_SERVICES"><path d="M33.72,489.7683 L243.9759,489.7683 A6,6 0 0 1 247.9759,493.7683 L254.9759,512.2566 L744.72,512.2566 A4,4 0 0 1 748.72,516.2566 L748.72,654.0383 A4,4 0 0 1 744.72,658.0383 L33.72,658.0383 A4,4 0 0 1 29.72,654.0383 L29.72,493.7683 A4,4 0 0 1 33.72,489.7683" fill="#F8FAFC" style="stroke:#94A3B8;stroke-width:1.5;"/><line style="stroke:#94A3B8;stroke-width:1.5;" x1="29.72" x2="254.9759" y1="512.2566" y2="512.2566"/><text fill="#0F172A" font-family="sans-serif" font-size="14" font-weight="bold" lengthAdjust="spacing" textLength="212.2559" x="33.72" y="505.3034">3 &#183; Service Layer &#8212; services/</text></g><!--cluster UTILS--><g class="cluster" data-entity="UTILS" data-source-line="49" data-uid="ent0019" id="cluster_UTILS"><path d="M912.72,738.0383 L1351.7815,738.0383 A6,6 0 0 1 1355.7815,742.0383 L1362.7815,760.5266 L1552.72,760.5266 A4,4 0 0 1 1556.72,764.5266 L1556.72,850.4783 A4,4 0 0 1 1552.72,854.4783 L912.72,854.4783 A4,4 0 0 1 908.72,850.4783 L908.72,742.0383 A4,4 0 0 1 912.72,738.0383" fill="#F8FAFC" style="stroke:#94A3B8;stroke-width:1.5;"/><line style="stroke:#94A3B8;stroke-width:1.5;" x1="908.72" x2="1362.7815" y1="760.5266" y2="760.5266"/><text fill="#0F172A" font-family="sans-serif" font-size="14" font-weight="bold" lengthAdjust="spacing" textLength="441.0615" x="912.72" y="753.5734">4 &#183; Pure Utilities &#8212; utils/ (no React, no network, unit-tested)</text></g><!--entity APP--><g class="entity" data-entity="APP" data-source-line="25" data-uid="ent0003" id="entity_APP"><rect fill="#EFF6FF" height="49.4434" rx="4" ry="4" style="stroke:#2563EB;stroke-width:0.5;" width="186.5522" x="524.44" y="78.4883"/><text fill="#0F172A" font-family="sans-serif" font-size="14" lengthAdjust="spacing" textLength="43.1074" x="534.44" y="102.0234">App.js</text><text fill="#0F172A" font-family="sans-serif" font-size="11" lengthAdjust="spacing" textLength="166.5522" x="534.44" y="115.6113">auth gate: LoginScreen vs. tabs</text></g><!--entity NAV--><g class="entity" data-entity="NAV" data-source-line="26" data-uid="ent0004" id="entity_NAV"><rect fill="#EFF6FF" height="62.3984" rx="4" ry="4" style="stroke:#2563EB;stroke-width:0.5;" width="206.5869" x="514.43" y="174.9283"/><text fill="#0F172A" font-family="sans-serif" font-size="14" lengthAdjust="spacing" textLength="186.5869" x="524.43" y="198.4634">navigation/AppNavigator.js</text><text fill="#0F172A" font-family="sans-serif" font-size="11" lengthAdjust="spacing" textLength="149.3809" x="524.43" y="212.0513">bottom tabs &#183; Quick Actions</text><text fill="#0F172A" font-family="sans-serif" font-size="11" lengthAdjust="spacing" textLength="139.5571" x="524.43" y="225.0064">live group-id subscription</text></g><!--entity LOGIN--><g class="entity" data-entity="LOGIN" data-source-line="30" data-uid="ent0006" id="entity_LOGIN"><rect fill="#EFF6FF" height="36.4883" rx="4" ry="4" style="stroke:#2563EB;stroke-width:0.5;" width="102.2568" x="810.59" y="343.8083"/><text fill="#0F172A" font-family="sans-serif" font-size="14" lengthAdjust="spacing" textLength="82.2568" x="820.59" y="367.3434">LoginScreen</text></g><!--entity HOME--><g class="entity" data-entity="HOME" data-source-line="31" data-uid="ent0007" id="entity_HOME"><rect fill="#EFF6FF" height="36.4883" rx="4" ry="4" style="stroke:#2563EB;stroke-width:0.5;" width="104.4854" x="924.48" y="343.8083"/><text fill="#0F172A" font-family="sans-serif" font-size="14" lengthAdjust="spacing" textLength="84.4854" x="934.48" y="367.3434">HomeScreen</text></g><!--entity ADD--><g class="entity" data-entity="ADD" data-source-line="32" data-uid="ent0008" id="entity_ADD"><rect fill="#EFF6FF" height="49.4434" rx="4" ry="4" style="stroke:#2563EB;stroke-width:0.5;" width="159.9492" x="482.75" y="337.3283"/><text fill="#0F172A" font-family="sans-serif" font-size="14" lengthAdjust="spacing" textLength="128.4199" x="492.75" y="360.8634">AddExpenseScreen</text><text fill="#0F172A" font-family="sans-serif" font-size="11" lengthAdjust="spacing" textLength="139.9492" x="492.75" y="374.4513">picks sharing destinations</text></g><!--entity SUMMARY--><g class="entity" data-entity="SUMMARY" data-source-line="33" data-uid="ent0009" id="entity_SUMMARY"><rect fill="#EFF6FF" height="36.4883" rx="4" ry="4" style="stroke:#2563EB;stroke-width:0.5;" width="190.9873" x="280.23" y="343.8083"/><text fill="#0F172A" font-family="sans-serif" font-size="14" lengthAdjust="spacing" textLength="170.9873" x="290.23" y="367.3434">SpendingSummaryScreen</text></g><!--entity HISTORY--><g class="entity" data-entity="HISTORY" data-source-line="34" data-uid="ent0010" id="entity_HISTORY"><rect fill="#EFF6FF" height="36.4883" rx="4" ry="4" style="stroke:#2563EB;stroke-width:0.5;" width="113.0781" x="1041.18" y="343.8083"/><text fill="#0F172A" font-family="sans-serif" font-size="14" lengthAdjust="spacing" textLength="93.0781" x="1051.18" y="367.3434">HistoryScreen</text></g><!--entity GROUP--><g class="entity" data-entity="GROUP" data-source-line="35" data-uid="ent0011" id="entity_GROUP"><rect fill="#EFF6FF" height="49.4434" rx="4" ry="4" style="stroke:#2563EB;stroke-width:0.5;" width="144.1689" x="654.64" y="337.3283"/><text fill="#0F172A" font-family="sans-serif" font-size="14" lengthAdjust="spacing" textLength="86.6729" x="664.64" y="360.8634">GroupScreen</text><text fill="#0F172A" font-family="sans-serif" font-size="11" lengthAdjust="spacing" textLength="124.1689" x="664.64" y="374.4513">GroupCard &#183; Disclosure</text></g><!--entity ITEM--><g class="entity" data-entity="ITEM" data-source-line="39" data-uid="ent0013" id="entity_ITEM"><rect fill="#EFF6FF" height="62.3984" rx="4" ry="4" style="stroke:#2563EB;stroke-width:0.5;" width="145.8555" x="1306.79" y="552.2083"/><text fill="#0F172A" font-family="sans-serif" font-size="14" lengthAdjust="spacing" textLength="86.5498" x="1316.79" y="575.7434">ExpenseItem</text><text fill="#0F172A" font-family="sans-serif" font-size="11" lengthAdjust="spacing" textLength="115.1187" x="1316.79" y="589.3313">{expense, attribution,</text><text fill="#0F172A" font-family="sans-serif" font-size="11" lengthAdjust="spacing" textLength="125.8555" x="1316.79" y="602.2864">onDelete, onLongPress}</text></g><!--entity PIE--><g class="entity" data-entity="PIE" data-source-line="40" data-uid="ent0014" id="entity_PIE"><rect fill="#EFF6FF" height="62.3984" rx="4" ry="4" style="stroke:#2563EB;stroke-width:0.5;" width="148.2886" x="950.58" y="552.2083"/><text fill="#0F172A" font-family="sans-serif" font-size="14" lengthAdjust="spacing" textLength="56.6563" x="960.58" y="575.7434">PieChart</text><text fill="#0F172A" font-family="sans-serif" font-size="11" lengthAdjust="spacing" textLength="128.2886" x="960.58" y="589.3313">{data, size, selectedKey,</text><text fill="#0F172A" font-family="sans-serif" font-size="11" lengthAdjust="spacing" textLength="69.1313" x="960.58" y="602.2864">onSlicePress}</text></g><!--entity PICKER--><g class="entity" data-entity="PICKER" data-source-line="41" data-uid="ent0015" id="entity_PICKER"><rect fill="#EFF6FF" height="49.4434" rx="4" ry="4" style="stroke:#2563EB;stroke-width:0.5;" width="184.5972" x="1110.42" y="558.6783"/><text fill="#0F172A" font-family="sans-serif" font-size="14" lengthAdjust="spacing" textLength="101.4932" x="1120.42" y="582.2134">CategoryPicker</text><text fill="#0F172A" font-family="sans-serif" font-size="11" lengthAdjust="spacing" textLength="164.5972" x="1120.42" y="595.8013">{categories, selected, onSelect}</text></g><!--entity FBSVC--><g class="entity" data-entity="FBSVC" data-source-line="45" data-uid="ent0017" id="entity_FBSVC"><rect fill="#EFF6FF" height="101.2637" rx="4" ry="4" style="stroke:#2563EB;stroke-width:0.5;" width="448.5542" x="53.44" y="532.7683"/><text fill="#0F172A" font-family="sans-serif" font-size="14" lengthAdjust="spacing" textLength="137.9492" x="63.44" y="556.3034">firebase.js  &#171;facade&#187;</text><text fill="#0F172A" font-family="sans-serif" font-size="11" lengthAdjust="spacing" textLength="313.9995" x="63.44" y="569.8913">auth: subscribeToAuthState, signIn/signUp/guest, signOut</text><text fill="#0F172A" font-family="sans-serif" font-size="11" lengthAdjust="spacing" textLength="414.584" x="63.44" y="582.8464">expenses: saveExpense, deleteExpense, subscribeToPersonal/GroupExpenses</text><text fill="#0F172A" font-family="sans-serif" font-size="11" lengthAdjust="spacing" textLength="428.5542" x="63.44" y="595.8015">budget: saveMonthlyBudget, subscribeToMonthlyBudget, checkBudgetAndNotify</text><text fill="#0F172A" font-family="sans-serif" font-size="11" lengthAdjust="spacing" textLength="261.8086" x="63.44" y="608.7566">groups: create/join/leave/rename/archiveGroup,</text><text fill="#0F172A" font-family="sans-serif" font-size="11" lengthAdjust="spacing" textLength="347.499" x="63.44" y="621.7116">subscribeToUserGroups, subscribeToGroup, ensureMemberEmail</text></g><!--entity OPENAI--><g class="entity" data-entity="OPENAI" data-source-line="46" data-uid="ent0018" id="entity_OPENAI"><rect fill="#EFF6FF" height="49.4434" rx="4" ry="4" style="stroke:#2563EB;stroke-width:0.5;" width="202.6763" x="514.38" y="558.6783"/><text fill="#0F172A" font-family="sans-serif" font-size="14" lengthAdjust="spacing" textLength="61.5029" x="524.38" y="582.2134">openai.js</text><text fill="#0F172A" font-family="sans-serif" font-size="11" lengthAdjust="spacing" textLength="182.6763" x="524.38" y="595.8013">parseBankSmsAlert (planned stub)</text></g><!--entity CUR--><g class="entity" data-entity="CUR" data-source-line="50" data-uid="ent0020" id="entity_CUR"><rect fill="#EFF6FF" height="49.4434" rx="4" ry="4" style="stroke:#2563EB;stroke-width:0.5;" width="103.5366" x="1044.95" y="781.0383"/><text fill="#0F172A" font-family="sans-serif" font-size="14" lengthAdjust="spacing" textLength="74.1152" x="1054.95" y="804.5734">currency.js</text><text fill="#0F172A" font-family="sans-serif" font-size="11" lengthAdjust="spacing" textLength="83.5366" x="1054.95" y="818.1613">formatCurrency</text></g><!--entity DATES--><g class="entity" data-entity="DATES" data-source-line="51" data-uid="ent0021" id="entity_DATES"><rect fill="#EFF6FF" height="49.4434" rx="4" ry="4" style="stroke:#2563EB;stroke-width:0.5;" width="149.9214" x="1374.76" y="781.0383"/><text fill="#0F172A" font-family="sans-serif" font-size="14" lengthAdjust="spacing" textLength="52.541" x="1384.76" y="804.5734">dates.js</text><text fill="#0F172A" font-family="sans-serif" font-size="11" lengthAdjust="spacing" textLength="129.9214" x="1384.76" y="818.1613">period math, range keys</text></g><!--entity EXP--><g class="entity" data-entity="EXP" data-source-line="52" data-uid="ent0022" id="entity_EXP"><rect fill="#EFF6FF" height="49.4434" rx="4" ry="4" style="stroke:#2563EB;stroke-width:0.5;" width="99.584" x="932.93" y="781.0383"/><text fill="#0F172A" font-family="sans-serif" font-size="14" lengthAdjust="spacing" textLength="79.584" x="942.93" y="804.5734">expenses.js</text><text fill="#0F172A" font-family="sans-serif" font-size="11" lengthAdjust="spacing" textLength="64.2329" x="942.93" y="818.1613">aggregation</text></g><!--entity BUD--><g class="entity" data-entity="BUD" data-source-line="53" data-uid="ent0023" id="entity_BUD"><rect fill="#EFF6FF" height="49.4434" rx="4" ry="4" style="stroke:#2563EB;stroke-width:0.5;" width="100.6362" x="1262.4" y="781.0383"/><text fill="#0F172A" font-family="sans-serif" font-size="14" lengthAdjust="spacing" textLength="63.9023" x="1272.4" y="804.5734">budget.js</text><text fill="#0F172A" font-family="sans-serif" font-size="11" lengthAdjust="spacing" textLength="80.6362" x="1272.4" y="818.1613">getBudgetState</text></g><!--entity PMATH--><g class="entity" data-entity="PMATH" data-source-line="54" data-uid="ent0024" id="entity_PMATH"><rect fill="#EFF6FF" height="49.4434" rx="4" ry="4" style="stroke:#2563EB;stroke-width:0.5;" width="90.1982" x="1160.62" y="781.0383"/><text fill="#0F172A" font-family="sans-serif" font-size="14" lengthAdjust="spacing" textLength="70.1982" x="1170.62" y="804.5734">pieMath.js</text><text fill="#0F172A" font-family="sans-serif" font-size="11" lengthAdjust="spacing" textLength="70.1948" x="1170.62" y="818.1613">arc geometry</text></g><!--entity SDK--><g class="entity" data-entity="SDK" data-source-line="57" data-uid="ent0025" id="entity_SDK"><path d="M219.2847,791.3366 C222.6123,785.6613 228.1761,784.7726 232.2335,790.5084 C235.3305,785.8613 240.4265,785.7716 243.4828,790.5569 C245.6656,785.5615 250.3601,783.475 254.2896,788.7122 C259.2777,782.9129 263.4721,783.271 267.9764,789.2732 C270.6318,782.9424 276.3159,782.6798 279.5946,788.6863 C282.8442,783.383 287.5896,783.8892 290.3043,789.2248 C293.7117,783.1901 298.4622,783.3435 301.7529,789.3359 C305.955,782.9535 310.7221,783.3848 314.4439,789.8117 C318.1619,784.2245 323.3599,785.8824 326.0549,790.9286 C330.5479,785.4599 334.7202,786.6734 338.1941,792.0674 C346.6594,793.6491 351.252,800.1141 344.8814,807.9446 C347.7742,815.3087 345.8197,820.6369 337.1531,821.3237 C335.8518,826.6664 331.4578,828.8314 327.2125,824.2822 C323.6774,831.7161 318.4436,830.5507 313.9556,825.2762 C311.1214,830.5027 305.7313,831.9392 301.8049,826.5231 C300.1469,832.3512 295.3493,833.2767 291.3598,828.9124 C287.633,834.786 282.6879,835.6783 277.9623,830.0787 C274.0397,835.2528 268.3181,834.6658 266.2889,828.1827 C262.4352,832.9016 256.4785,833.5346 254.1174,826.621 C250.3862,831.4735 245.8679,831.0646 243.3824,825.3549 C238.6689,830.3828 234.6466,830.3173 231.7386,823.5696 C227.3395,829.4556 223.0815,829.8528 219.0722,823.1765 C209.3496,821.9219 206.1667,816.7378 210.6924,807.7456 C204.7046,798.2395 208.2938,791.9521 219.2847,791.3366" fill="#F1F1F1" style="stroke:#181818;stroke-width:0.5;"/><text fill="#000000" font-family="sans-serif" font-size="14" lengthAdjust="spacing" textLength="104.4805" x="225.48" y="811.0434">Firebase JS SDK</text></g><g class="entity" data-entity="GMN50" data-source-line="95" data-uid="ent0051" id="entity_GMN50"><path d="M1657.27,559.4383 L1657.27,607.3699 A4,4 0 0 0 1661.27,611.3699 L1926.164,611.3699 A4,4 0 0 0 1930.164,607.3699 L1930.164,565.4383 L1920.164,555.4383 L1661.27,555.4383 A4,4 0 0 0 1657.27,559.4383" fill="#FEFFDD" style="stroke:#181818;stroke-width:0.5;"/><path d="M1920.164,555.4383 L1920.164,563.4383 A2,2 0 0 0 1922.164,565.4383 L1930.164,565.4383 L1920.164,555.4383" fill="#FEFFDD" style="stroke:#181818;stroke-width:1;"/><text fill="#000000" font-family="sans-serif" font-size="13" lengthAdjust="spacing" textLength="239.4971" x="1663.27" y="573.0066">Single seam for change: swapping the</text><text fill="#000000" font-family="sans-serif" font-size="13" lengthAdjust="spacing" textLength="251.894" x="1663.27" y="588.3172">database, or adding caching or logging,</text><text fill="#000000" font-family="sans-serif" font-size="13" lengthAdjust="spacing" textLength="153.2642" x="1663.27" y="603.6277">touches exactly one file.</text></g><g class="entity" data-entity="GMN53" data-source-line="101" data-uid="ent0054" id="entity_GMN53"><path d="M1580.59,758.8283 L1580.59,852.6916 A4,4 0 0 0 1584.59,856.6916 L1894.8507,856.6916 A4,4 0 0 0 1898.8507,852.6916 L1898.8507,764.8283 L1888.8507,754.8283 L1584.59,754.8283 A4,4 0 0 0 1580.59,758.8283" fill="#FEFFDD" style="stroke:#181818;stroke-width:0.5;"/><path d="M1888.8507,754.8283 L1888.8507,762.8283 A2,2 0 0 0 1890.8507,764.8283 L1898.8507,764.8283 L1888.8507,754.8283" fill="#FEFFDD" style="stroke:#181818;stroke-width:1;"/><text fill="#000000" font-family="sans-serif" font-size="13" lengthAdjust="spacing" textLength="227.8299" x="1586.59" y="772.3966">Dependency-free &#8658; unit-testable in</text><text fill="#000000" font-family="sans-serif" font-size="13" lengthAdjust="spacing" textLength="259.8286" x="1586.59" y="787.7072">milliseconds (58 unit tests, no emulator).</text><text fill="#000000" font-family="sans-serif" font-size="13" lengthAdjust="spacing" textLength="283.042" x="1586.59" y="803.0177">Every layer above may use these &#8212; including</text><text fill="#000000" font-family="sans-serif" font-size="13" lengthAdjust="spacing" textLength="270.645" x="1586.59" y="818.3283">services/, for the budget-alert copy &#8212; and</text><text fill="#000000" font-family="sans-serif" font-size="13" lengthAdjust="spacing" textLength="297.2607" x="1586.59" y="833.6388">they depend on nothing app-specific in return.</text><text fill="#000000" font-family="sans-serif" font-size="13" lengthAdjust="spacing" textLength="235.0664" x="1586.59" y="848.9494">Only representative edges are drawn.</text></g><g class="entity" data-entity="GMN56" data-source-line="110" data-uid="ent0057" id="entity_GMN56"><path d="M1941.83,559.4383 L1941.83,607.3699 A4,4 0 0 0 1945.83,611.3699 L2299.6166,611.3699 A4,4 0 0 0 2303.6166,607.3699 L2303.6166,565.4383 L2293.6166,555.4383 L1945.83,555.4383 A4,4 0 0 0 1941.83,559.4383" fill="#FEFFDD" style="stroke:#181818;stroke-width:0.5;"/><path d="M2293.6166,555.4383 L2293.6166,563.4383 A2,2 0 0 0 2295.6166,565.4383 L2303.6166,565.4383 L2293.6166,555.4383" fill="#FEFFDD" style="stroke:#181818;stroke-width:1;"/><text fill="#000000" font-family="sans-serif" font-size="13" lengthAdjust="spacing" textLength="264.7098" x="1947.83" y="573.0066">No knowledge of Firebase &#8658; reusable and</text><text fill="#000000" font-family="sans-serif" font-size="13" lengthAdjust="spacing" textLength="289.4849" x="1947.83" y="588.3172">testable with props alone. PieChart is generic;</text><text fill="#000000" font-family="sans-serif" font-size="13" lengthAdjust="spacing" textLength="340.7866" x="1947.83" y="603.6277">it happens to render per-member group spend today.</text></g><!--link APP to LOGIN--><g class="link" data-entity-1="APP" data-entity-2="LOGIN" data-source-line="60" data-uid="lnk26" id="link_APP_LOGIN"><path d="M662.83,128.3583 C683.58,140.7083 707.74,156.9183 726.72,174.9283 C783.17,228.5183 828.9719,303.2496 849.0119,338.2996" fill="none" id="APP-to-LOGIN" style="stroke:#475569;stroke-width:1;"/><polygon fill="#475569" points="851.99,343.5083,850.9953,333.7098,849.5082,339.1677,844.0503,337.6806,851.99,343.5083" style="stroke:#475569;stroke-width:1;"/></g><!--link APP to NAV--><g class="link" data-entity-1="APP" data-entity-2="NAV" data-source-line="61" data-uid="lnk27" id="link_APP_NAV"><path d="M617.72,128.3783 C617.72,142.2583 617.72,153.8183 617.72,168.6383" fill="none" id="APP-to-NAV" style="stroke:#475569;stroke-width:1;"/><polygon fill="#475569" points="617.72,174.6383,621.72,165.6383,617.72,169.6383,613.72,165.6383,617.72,174.6383" style="stroke:#475569;stroke-width:1;"/></g><!--link NAV to HOME--><g class="link" data-entity-1="NAV" data-entity-2="HOME" data-source-line="62" data-uid="lnk28" id="link_NAV_HOME"><path d="M721.38,222.0283 C782.43,234.3583 859.12,256.2483 918.72,294.3283 C938.51,306.9683 951.9717,323.3866 962.3317,338.5266" fill="none" id="NAV-to-HOME" style="stroke:#475569;stroke-width:1;"/><polygon fill="#475569" points="965.72,343.4783,963.9386,333.7919,962.8964,339.3519,957.3364,338.3096,965.72,343.4783" style="stroke:#475569;stroke-width:1;"/></g><!--link NAV to ADD--><g class="link" data-entity-1="NAV" data-entity-2="ADD" data-source-line="63" data-uid="lnk29" id="link_NAV_ADD"><path d="M606.85,237.5383 C596.4,266.7983 582.819,304.7982 573.239,331.6082" fill="none" id="NAV-to-ADD" style="stroke:#475569;stroke-width:1;"/><polygon fill="#475569" points="571.22,337.2583,578.0152,330.1291,572.9025,332.5498,570.4817,327.4371,571.22,337.2583" style="stroke:#475569;stroke-width:1;"/></g><!--link NAV to SUMMARY--><g class="link" data-entity-1="NAV" data-entity-2="SUMMARY" data-source-line="64" data-uid="lnk30" id="link_NAV_SUMMARY"><path d="M567.57,237.6383 C540.54,254.2183 506.67,275.1783 476.72,294.3283 C451.05,310.7383 427.0366,326.6316 406.7266,340.2216" fill="none" id="NAV-to-SUMMARY" style="stroke:#475569;stroke-width:1;"/><polygon fill="#475569" points="401.74,343.5583,411.4444,341.8777,405.8955,340.7777,406.9955,335.2288,401.74,343.5583" style="stroke:#475569;stroke-width:1;"/></g><!--link NAV to HISTORY--><g class="link" data-entity-1="NAV" data-entity-2="HISTORY" data-source-line="65" data-uid="lnk31" id="link_NAV_HISTORY"><path d="M721.44,211.5783 C809.69,219.2583 937.26,239.7983 1034.72,294.3283 C1056.13,306.3083 1071.0305,323.1809 1082.3305,338.5809" fill="none" id="NAV-to-HISTORY" style="stroke:#475569;stroke-width:1;"/><polygon fill="#475569" points="1085.88,343.4183,1083.7806,333.7958,1082.922,339.3871,1077.3307,338.5285,1085.88,343.4183" style="stroke:#475569;stroke-width:1;"/></g><!--link NAV to GROUP--><g class="link" data-entity-1="NAV" data-entity-2="GROUP" data-source-line="66" data-uid="lnk32" id="link_NAV_GROUP"><path d="M639.25,237.5383 C659.98,266.7983 687.4119,305.5521 706.4019,332.3621" fill="none" id="NAV-to-GROUP" style="stroke:#475569;stroke-width:1;"/><polygon fill="#475569" points="709.87,337.2583,707.932,327.602,706.98,333.1781,701.4038,332.226,709.87,337.2583" style="stroke:#475569;stroke-width:1;"/></g><!--link HOME to ITEM--><g class="link" data-entity-1="HOME" data-entity-2="ITEM" data-source-line="69" data-uid="lnk33" id="link_HOME_ITEM"><path d="M992.64,380.7683 C1003.39,391.4583 1018.52,404.2183 1034.72,410.7683 C1076.06,427.4783 1092.03,405.9183 1134.72,418.7683 C1176.06,431.2183 1178.5,452.9383 1219.72,465.7683 C1254.26,476.5183 1269.33,455.7883 1300.72,473.7683 C1331.48,491.3883 1350.8583,521.031 1363.7283,546.551" fill="none" id="HOME-to-ITEM" style="stroke:#475569;stroke-width:1;"/><polygon fill="#475569" points="1366.43,551.9083,1365.9489,542.0712,1364.1786,547.4439,1358.8059,545.6735,1366.43,551.9083" style="stroke:#475569;stroke-width:1;"/></g><!--link HISTORY to ITEM--><g class="link" data-entity-1="HISTORY" data-entity-2="ITEM" data-source-line="70" data-uid="lnk34" id="link_HISTORY_ITEM"><path d="M1142.82,380.7283 C1186.49,399.3483 1252.91,431.7783 1300.72,473.7683 C1326.3,496.2383 1345.2858,523.2798 1359.5558,546.7798" fill="none" id="HISTORY-to-ITEM" style="stroke:#475569;stroke-width:1;"/><polygon fill="#475569" points="1362.67,551.9083,1361.4177,542.1394,1360.0748,547.6345,1354.5797,546.2916,1362.67,551.9083" style="stroke:#475569;stroke-width:1;"/></g><!--link GROUP to PIE--><g class="link" data-entity-1="GROUP" data-entity-2="PIE" data-source-line="71" data-uid="lnk35" id="link_GROUP_PIE"><path d="M757.96,387.2283 C771.56,396.3683 788.16,405.7583 804.72,410.7683 C826.96,417.4983 997.05,402.5783 1013.72,418.7683 C1048.74,452.7983 1043.1066,508.8168 1034.6866,545.9568" fill="none" id="GROUP-to-PIE" style="stroke:#475569;stroke-width:1;"/><polygon fill="#475569" points="1033.36,551.8083,1039.2509,543.9154,1034.4655,546.932,1031.4489,542.1466,1033.36,551.8083" style="stroke:#475569;stroke-width:1;"/></g><!--link ADD to PICKER--><g class="link" data-entity-1="ADD" data-entity-2="PICKER" data-source-line="72" data-uid="lnk36" id="link_ADD_PICKER"><path d="M597.04,387.1283 C612.16,396.3683 630.59,405.8683 648.72,410.7683 C688.09,421.4183 976.61,407.1983 1015.72,418.7683 C1093.28,441.7183 1154.0095,513.9769 1182.8495,553.6069" fill="none" id="ADD-to-PICKER" style="stroke:#475569;stroke-width:1;"/><polygon fill="#475569" points="1186.38,558.4583,1184.3185,548.8276,1183.4379,554.4155,1177.85,553.5349,1186.38,558.4583" style="stroke:#475569;stroke-width:1;"/></g><!--link APP to FBSVC--><g class="link" data-entity-1="APP" data-entity-2="FBSVC" data-source-line="75" data-uid="lnk37" id="link_APP_FBSVC"><path d="M524.05,118.1983 C379.93,141.8683 114.57,194.5983 58.72,269.3283 C6,339.8783 36.03,392.3883 84.72,465.7683 C102.9,493.1783 124.8083,512.0228 152.9283,529.1828" fill="none" id="APP-to-FBSVC" style="stroke:#475569;stroke-width:1;"/><polygon fill="#475569" points="158.05,532.3083,152.4511,524.2056,153.7819,529.7037,148.2839,531.0345,158.05,532.3083" style="stroke:#475569;stroke-width:1;"/><text fill="#000000" font-family="sans-serif" font-size="13" lengthAdjust="spacing" textLength="63.064" x="59.72" y="282.8966">auth state</text></g><!--link LOGIN to FBSVC--><g class="link" data-entity-1="LOGIN" data-entity-2="FBSVC" data-source-line="76" data-uid="lnk38" id="link_LOGIN_FBSVC"><path d="M846.68,380.5183 C836.16,391.3883 821.1,404.4583 804.72,410.7683 C783.35,419.0083 617.34,405.4283 598.72,418.7683 C580.54,431.7983 598.42,452.0983 580.72,465.7683 C567.98,475.6183 524.21,469.3983 508.72,473.7683 C459.78,487.5883 413.6406,508.1036 371.7306,529.5636" fill="none" id="LOGIN-to-FBSVC" style="stroke:#475569;stroke-width:1;"/><polygon fill="#475569" points="366.39,532.2983,376.224,531.7567,370.8405,530.0194,372.5778,524.6359,366.39,532.2983" style="stroke:#475569;stroke-width:1;"/><text fill="#000000" font-family="sans-serif" font-size="13" lengthAdjust="spacing" textLength="123.7412" x="599.72" y="447.3366">sign in / up / guest</text></g><!--link HOME to FBSVC--><g class="link" data-entity-1="HOME" data-entity-2="FBSVC" data-source-line="77" data-uid="lnk39" id="link_HOME_FBSVC"><path d="M961.35,380.4883 C950.61,391.3383 935.28,404.4083 918.72,410.7683 C900.24,417.8683 756.78,407.1883 740.72,418.7683 C722.58,431.8583 740.91,452.7483 722.72,465.7683 C703.37,479.6183 531.84,468.1483 508.72,473.7683 C458.01,486.0983 410.3903,507.2753 368.0103,529.5653" fill="none" id="HOME-to-FBSVC" style="stroke:#475569;stroke-width:1;"/><polygon fill="#475569" points="362.7,532.3583,372.5274,531.709,367.1252,530.0308,368.8035,524.6286,362.7,532.3583" style="stroke:#475569;stroke-width:1;"/><text fill="#000000" font-family="sans-serif" font-size="13" lengthAdjust="spacing" textLength="117.6792" x="741.72" y="439.8366">personal expenses</text><text fill="#000000" font-family="sans-serif" font-size="13" lengthAdjust="spacing" textLength="59.0903" x="771.0144" y="455.1472">+ budget</text></g><!--link ADD to FBSVC--><g class="link" data-entity-1="ADD" data-entity-2="FBSVC" data-source-line="78" data-uid="lnk40" id="link_ADD_FBSVC"><path d="M527.95,387.2483 C512.9,396.3883 494.65,405.7783 476.72,410.7683 C465.05,414.0183 267.13,410.0483 258.72,418.7683 C243.49,434.5783 251.9173,484.4318 262.2573,526.4818" fill="none" id="ADD-to-FBSVC" style="stroke:#475569;stroke-width:1;"/><polygon fill="#475569" points="263.69,532.3083,265.4252,522.6135,262.4961,527.4529,257.6566,524.5238,263.69,532.3083" style="stroke:#475569;stroke-width:1;"/><text fill="#000000" font-family="sans-serif" font-size="13" lengthAdjust="spacing" textLength="80.1582" x="284.7742" y="432.3366">saveExpense</text><text fill="#000000" font-family="sans-serif" font-size="13" lengthAdjust="spacing" textLength="130.2666" x="259.72" y="447.6472">+ subscribeToGroup</text><text fill="#000000" font-family="sans-serif" font-size="13" lengthAdjust="spacing" textLength="126.2168" x="261.7449" y="462.9577">(active destinations)</text></g><!--link SUMMARY to FBSVC--><g class="link" data-entity-1="SUMMARY" data-entity-2="FBSVC" data-source-line="79" data-uid="lnk41" id="link_SUMMARY_FBSVC"><path d="M338.65,380.7483 C314.48,391.4183 281.92,404.1883 251.72,410.7683 C237.69,413.8283 132.56,408.3083 122.72,418.7683 C86.81,456.9783 125.9153,496.77 176.1553,529.12" fill="none" id="SUMMARY-to-FBSVC" style="stroke:#475569;stroke-width:1;"/><polygon fill="#475569" points="181.2,532.3683,175.7986,524.1327,176.9961,529.6614,171.4675,530.8589,181.2,532.3683" style="stroke:#475569;stroke-width:1;"/><text fill="#000000" font-family="sans-serif" font-size="13" lengthAdjust="spacing" textLength="117.6792" x="123.72" y="439.8366">personal expenses</text><text fill="#000000" font-family="sans-serif" font-size="13" lengthAdjust="spacing" textLength="59.0903" x="153.0144" y="455.1472">+ budget</text></g><!--link HISTORY to FBSVC--><g class="link" data-entity-1="HISTORY" data-entity-2="FBSVC" data-source-line="80" data-uid="lnk42" id="link_HISTORY_FBSVC"><path d="M1078.21,380.6483 C1066.33,390.6083 1050.46,402.6683 1034.72,410.7683 C961.86,448.2983 939.59,452.4783 858.72,465.7683 C781.95,478.3883 584.45,455.9383 508.72,473.7683 C457.71,485.7783 409.8442,507.0738 367.3842,529.5238" fill="none" id="HISTORY-to-FBSVC" style="stroke:#475569;stroke-width:1;"/><polygon fill="#475569" points="362.08,532.3283,371.906,531.6577,366.5002,529.9912,368.1666,524.5854,362.08,532.3283" style="stroke:#475569;stroke-width:1;"/><text fill="#000000" font-family="sans-serif" font-size="13" lengthAdjust="spacing" textLength="117.6792" x="1019.15" y="439.8366">personal expenses</text><text fill="#000000" font-family="sans-serif" font-size="13" lengthAdjust="spacing" textLength="52.9775" x="1051.5008" y="455.1472">+ delete</text></g><!--link GROUP to FBSVC--><g class="link" data-entity-1="GROUP" data-entity-2="FBSVC" data-source-line="81" data-uid="lnk43" id="link_GROUP_FBSVC"><path d="M695.5,387.2683 C681.9,396.4183 665.3,405.8083 648.72,410.7683 C623.05,418.4583 429.54,403.2183 407.72,418.7683 C389.5,431.7483 401.7,446.8883 389.72,465.7683 C374.45,489.8283 357.9468,508.9198 338.4368,528.2998" fill="none" id="GROUP-to-FBSVC" style="stroke:#475569;stroke-width:1;"/><polygon fill="#475569" points="334.18,532.5283,343.3842,529.0235,337.7273,529.0046,337.7462,523.3478,334.18,532.5283" style="stroke:#475569;stroke-width:1;"/><text fill="#000000" font-family="sans-serif" font-size="13" lengthAdjust="spacing" textLength="163.8267" x="413.2237" y="439.8366">groups + group expenses</text><text fill="#000000" font-family="sans-serif" font-size="13" lengthAdjust="spacing" textLength="172.834" x="408.72" y="455.1472">+ rename / archive (owner)</text></g><!--link NAV to FBSVC--><g class="link" data-entity-1="NAV" data-entity-2="FBSVC" data-source-line="82" data-uid="lnk44" id="link_NAV_FBSVC"><path d="M513.99,210.7283 C383.32,217.6083 169.55,237.4683 117.72,294.3283 C66.3,350.7383 72.15,398.2383 107.72,465.7683 C122.06,493.0083 140.994,511.7263 166.404,529.0663" fill="none" id="NAV-to-FBSVC" style="stroke:#475569;stroke-width:1;"/><polygon fill="#475569" points="171.36,532.4483,166.1807,524.0713,167.23,529.6299,161.6713,530.6793,171.36,532.4483" style="stroke:#475569;stroke-width:1;"/><text fill="#000000" font-family="sans-serif" font-size="13" lengthAdjust="spacing" textLength="150.6426" x="118.72" y="367.1166">subscribeToUserGroups</text></g><!--link FBSVC to SDK--><g class="link" data-entity-1="FBSVC" data-entity-2="SDK" data-source-line="83" data-uid="lnk45" id="link_FBSVC_SDK"><path d="M277.72,634.4083 C277.72,680.7483 277.72,741.5983 277.72,776.1583" fill="none" id="FBSVC-to-SDK" style="stroke:#475569;stroke-width:1;"/><polygon fill="#475569" points="277.72,782.1583,281.72,773.1583,277.72,777.1583,273.72,773.1583,277.72,782.1583" style="stroke:#475569;stroke-width:1;"/><text fill="#000000" font-family="sans-serif" font-size="13" lengthAdjust="spacing" textLength="110.5063" x="288.3177" y="695.6066">the ONLY module</text><text fill="#000000" font-family="sans-serif" font-size="13" lengthAdjust="spacing" textLength="129.7017" x="278.72" y="710.9172">importing firebase/*</text></g><!--link SUMMARY to EXP--><g class="link" data-entity-1="SUMMARY" data-entity-2="EXP" data-source-line="89" data-uid="lnk46" id="link_SUMMARY_EXP"><path d="M404.56,380.7383 C424.13,391.7083 451.03,404.7983 476.72,410.7683 C490.74,414.0283 984.62,408.5183 994.72,418.7683 C1009.38,433.6583 1009.15,450.6683 994.72,465.7683 C981.43,479.6883 835.01,459.8583 821.72,473.7683 C760.25,538.1483 783.45,593.6783 821.72,674.0383 C844.78,722.4683 890.3286,755.8348 928.7286,777.7448" fill="none" id="SUMMARY-to-EXP" style="stroke:#475569;stroke-width:1;stroke-dasharray:7,7;"/><polygon fill="#475569" points="933.94,780.7183,928.1052,772.7838,929.5972,778.2404,924.1406,779.7323,933.94,780.7183" style="stroke:#475569;stroke-width:1;"/><text fill="#000000" font-family="sans-serif" font-size="13" lengthAdjust="spacing" textLength="116.2192" x="822.72" y="588.4666">&#171;uses&#187; summarize</text></g><!--link HISTORY to DATES--><g class="link" data-entity-1="HISTORY" data-entity-2="DATES" data-source-line="90" data-uid="lnk47" id="link_HISTORY_DATES"><path d="M1154.47,370.7483 C1252.62,385.3683 1447.46,420.4983 1487.72,473.7683 C1558.68,567.6783 1495.5251,716.0877 1465.5251,775.2077" fill="none" id="HISTORY-to-DATES" style="stroke:#475569;stroke-width:1;stroke-dasharray:7,7;"/><polygon fill="#475569" points="1462.81,780.5583,1470.4497,774.3425,1465.0726,776.0995,1463.3156,770.7224,1462.81,780.5583" style="stroke:#475569;stroke-width:1;"/><text fill="#000000" font-family="sans-serif" font-size="13" lengthAdjust="spacing" textLength="123.3286" x="1520.47" y="588.4666">&#171;uses&#187; period math</text></g><!--link ITEM to CUR--><g class="link" data-entity-1="ITEM" data-entity-2="CUR" data-source-line="91" data-uid="lnk48" id="link_ITEM_CUR"><path d="M1362.23,614.8483 C1348.45,635.6183 1327.17,661.5483 1300.72,674.0383 C1277.2,685.1483 1084.8,663.3283 1066.72,682.0383 C1041.11,708.5283 1058.8322,748.0278 1076.2422,775.5478" fill="none" id="ITEM-to-CUR" style="stroke:#475569;stroke-width:1;stroke-dasharray:7,7;"/><polygon fill="#475569" points="1079.45,780.6183,1078.0187,770.874,1076.7769,776.3928,1071.258,775.151,1079.45,780.6183" style="stroke:#475569;stroke-width:1;"/><text fill="#000000" font-family="sans-serif" font-size="13" lengthAdjust="spacing" textLength="145.0249" x="1067.72" y="703.1066">&#171;uses&#187; formatCurrency</text></g><!--link PIE to PMATH--><g class="link" data-entity-1="PIE" data-entity-2="PMATH" data-source-line="92" data-uid="lnk49" id="link_PIE_PMATH"><path d="M1042.97,614.9983 C1057.04,635.5583 1078.51,661.1583 1104.72,674.0383 C1127.11,685.0383 1199.72,663.7683 1216.72,682.0383 C1241.21,708.3383 1231.1137,747.424 1219.7037,775.004" fill="none" id="PIE-to-PMATH" style="stroke:#475569;stroke-width:1;stroke-dasharray:7,7;"/><polygon fill="#475569" points="1217.41,780.5483,1224.5467,773.761,1219.3214,775.9281,1217.1544,770.7027,1217.41,780.5483" style="stroke:#475569;stroke-width:1;"/><text fill="#000000" font-family="sans-serif" font-size="13" lengthAdjust="spacing" textLength="92.752" x="1231.34" y="703.1066">&#171;uses&#187; arcPath</text></g><!--link SERVICES to GMN50--><g class="link" data-entity-1="SERVICES" data-entity-2="GMN50" data-source-line="95" data-uid="lnk52" id="link_SERVICES_GMN50"><path d="M746.0416,511.7129 C746.1836,511.2526 746.5393,487.614 746.6862,487.1554 C746.9798,486.2383 747.2831,485.3245 747.5962,484.4147 C748.2225,482.5952 748.8884,480.7914 749.5961,479.0078 C755.2575,464.7389 763.5925,451.7583 775.72,442.2683 C813.66,412.5883 1597.91,424.5883 1642.72,442.2683 C1700.13,464.9283 1748.56,520.8483 1774.16,555.1083" fill="none" id="SERVICES-GMN50" style="stroke:#475569;stroke-width:1;stroke-dasharray:7,7;"/></g><!--link UTILS to GMN53--><g class="link" data-entity-1="UTILS" data-entity-2="GMN53" data-source-line="101" data-uid="lnk55" id="link_UTILS_GMN53"><path d="M1556.8186,805.7583 C1556.8588,805.7583 1556.8989,805.7583 1556.9391,805.7583 C1557.0194,805.7583 1557.0997,805.7583 1557.18,805.7583 C1559.75,805.7583 1562.32,805.7583 1564.89,805.7583 C1570.03,805.7583 1575.17,805.7583 1580.31,805.7583" fill="none" id="UTILS-GMN53" style="stroke:#475569;stroke-width:1;stroke-dasharray:7,7;"/></g><!--link COMPONENTS to GMN56--><g class="link" data-entity-1="COMPONENTS" data-entity-2="GMN56" data-source-line="110" data-uid="lnk58" id="link_COMPONENTS_GMN56"><path d="M1477.4662,531.3336 C1477.5485,530.8644 1477.7548,507.2034 1477.8409,506.734 C1478.1855,504.8567 1478.5609,502.9779 1478.9693,501.1021 C1480.6031,493.5988 1482.7654,486.1423 1485.5961,479.0078 C1491.2575,464.7389 1499.5925,451.7583 1511.72,442.2683 C1548.3,413.6583 1885.57,427.8483 1929.72,442.2683 C1997.59,464.4383 2061.38,520.5283 2095.94,554.9483" fill="none" id="COMPONENTS-GMN56" style="stroke:#475569;stroke-width:1;stroke-dasharray:7,7;"/></g><!--SRC=[ZLVDSXit4hxpAL3EmL92YYlRSXojIrKKITbQYJ_XIAvDnNi0Py0Xh24m1M38PLAfoctlMtcBFC0UzkP7oPFaQs260YLvQrKbaW0QZUx6rrytdhEa52fB52_P7x_-nlfwLMebb6DTLl2jC29ZtAHBwKJgAYEONZ2t52mj98IEMi_PS2tC5Z96RrYgZH4M2ZBBd6PSCOvTl60IMerZKeNDEXDpRiLHg-MaAyGNRHX8dXk-OWVNjIbzVophHHOTjbhsJggIa-2SftUvqPNA-hhGXdrruVyY2RlacTv8bRC5Bwo8LlmsUA24OM-Y-HwvLgjxzUt9oUlleiMqiJLnMpXYO1DNUH7hLV3MYf8TluWFu-gE9b-TH9CbhEUvO3-t63j_vCcRYzv5drQqoOIfPxzxrNjv_WQp5rgvUkul5yVVlkYrVddApATr3oykNYDA3tI_E7dzSdZ-1TsjnjXdn-ppVrYlB0kPSYUrOZEjtJF6BPjD9ZV-m1-nVFJ9VbHlhVn9d1uVd_7ABLdEdJXbrpgNAacD48gjxH5pV6xVTadmx1-afJUTaWh5rpBt1tIXRHn6skohdMldzCgh8Ak-hsHwntefxMfqHjA5N0j6WIWxCcEscjlKo9A4u_F7lGzx_huWpLFW7E4C3XDehNV0Tjb1YcXn2HJPKsOX8TWtUxhjeGzEqfyDX-Can2UAWJ_pUlBkSamBx_LAHFFl9wEXZsUM3V-9fB7rOkHK2PSjmTmGo04z9nMF0n22EXYG7fzua4kgrOgRRNHISZiQzMO_U1kaHQ3ZnVUNoSqaBBwZy3qomi_skSaeLWDfqq9Rv6fimRlPv7Qw7zZvav7TOPU2QqHb-RmGRLP6Shm8CUrFHjF9U3Y-gSDQn-ZIYLLatCyYJBSPTyx8UKKgse_XeTL05C91JgjhhNAopFuI-t1vCnpHELCf-WYuYm_9kEDjHaDyGa_gH7Obja-Uao1tn6Frqqj_sNrWACS5J76pmiHdf6552dj_1bcR-DyFTFMlXhEzUB-aS2V2h74uymmRa1ncR3V0T3ZxSDaVrW5TI1EO-vDbxFFl2vxoJ7p-xuF4FctmFXStkeU9XDA0Wf6hIzMbhzkocrV0PfYSLEvnMEfReYpYQp5ixYppTx8RHYTDaNA4XQv7NotnHDhFgomNBgWT8LcNnVRSJ-rfUx2IBaLw5mOzbOsrauljOzMUJ60nyW4UTpzfgRg5m3bT8nHVYQwlfMlXBNm22j7vjxW7BsRtp0ex6Ln3Fet4QYxCSCLb4T_rnNdoWIh5ZneXu7AV8b4Gh3X7-KbMjbS8LEM3ik1AeRfQLyqFOqMJwN3Skzm3pIkVezG9t3fPI0ViUTGWYGfAKANPJA3gjr7tc19keyrTcrLAkex3VOiiPEhjpULrZQcqGjEWqks-cGjjLjprwxNOgFxjZBOXluHzu9emKcSC-vPjgh2mzqviztXlqBiP9hIzGTU3ifJdHeGg4-yQ_jsNe02S_HsO2AZm68ytdTzwYYsb6C6W1-UObEK2tExCdc_JKU_cFSKRX5bbxDb5dM_iRmbB1bSX8mTNBVHTdKx7LrgsaPxfCMwXLEBxh2uVpOWA6FxzRrz0cW4LWUPtm_SxmPhYct6Ww_hSmFSsKBEbjYUmSiJLtXuwpU_sH5chl9_mElsGc0xMrByzKzL7XVQI-ZfKAhIJ82RBSWtKkILI8L_wZX9dDhp5LZghO4eS3vyGx9JvhiFNv9OFqTuY4H5rg5rMbVZmz7JlGIDLrYJ36W1zLD-m08oT1pkDzxn5KW-p-ACwGA9G3n9NwSDMVHN_zx5nNF-dVA3EAEoDTA0jz2d-nzwUm5k8HyrSx41lqDiSxe2nS_Ofwcg5LG-mmHMawB8cu-iVwblwgCBBmFVZDTQxNpTtxsccG6kKCcbX2K-N7cKBWnvFU63uDmeAER2H2MfcBB00wb7DIsNbWV2S3GpVAD-BTvpkq3S9bfKX00CPJVDDgmtP1Ot4F-2KEq3kdU7bSYr_ehS20ldSkoDm2OWEjTD-l5bgoeIY0jl1jCrIfaio7gOXUpdmPpWGJV9ekUW9DL6KGlSDpRfMYaiC3eB6H6czzX8bXNBUBM42TcNmYw8NmX6YURI3qD7H6P4N0l_sROKRFJl3FL6h1yRPuOQ4F2_6OX6NjYXPlHIeDvRPv-WMajXBUHABvG2TAUbfAOrksCXywUXscjO2B9b8UZGXXV5MWLPKMs9lW6h3ovBSW-iGevwA888Unp2UKUVAKg22lZ43gA2DpjkGTBf2nRQ0CbAis7g2MCW2JqwY4RBZeJM-8c7dO7VfdGLOZltnht_VboyFFwaWjf958Qr8_LltuEIDbs4aOttf4wkgeFV9uH64X_TOPNokSRyhG03H8R_mIGLKAa26F8ByhWLh-sZGlOTSxt1ViLDTRlqcu9wSNOfj3TQ0VkSZWj1rR2bIkQ04KW0BtikAx9aeXEG9n06Uo3Y2bFfoeEwRR6WQQtQdzARmUCNYhc1Hs7PbeJQp2I2X5_sx1gHvWPivOaq3JNcU2_2BJF-A7OZe4bvGgN6Qg0YFKq9cP-KRdvgkh7VSwOnl8wl_1000]--></g></svg>