<svg xmlns="http://www.w3.org/2000/svg" xmlns:xlink="http://www.w3.org/1999/xlink" contentStyleType="text/css" data-diagram-type="STATE" height="992px" preserveAspectRatio="none" style="width:1088px;height:992px;background:#FFFFFF;" version="1.1" viewBox="0 0 1088 992" width="1088px" zoomAndPan="magnify"><title>SpendSnap &#8212; State Diagram: Auth Gate &amp; Navigation</title><defs/><g><g class="title" data-source-line="4"><text fill="#000000" font-family="sans-serif" font-size="14" font-weight="bold" lengthAdjust="spacing" textLength="380.4951" x="346.0024" y="23.5352">SpendSnap &#8212; State Diagram: Auth Gate &amp; Navigation</text></g><!--cluster CheckingAuth--><g class="cluster" data-entity="CheckingAuth" data-source-line="19" data-uid="ent0002" id="cluster_CheckingAuth"><path d="M168.5,92.4883 L416.5,92.4883 A12.5,12.5 0 0 1 429,104.9883 L429,161.375 L156,161.375 L156,104.9883 A12.5,12.5 0 0 1 168.5,92.4883" fill="#FEF9C3"/><rect fill="none" height="106" rx="12.5" ry="12.5" style="stroke:#2563EB;stroke-width:0.5;" width="273" x="156" y="92.4883"/><line style="stroke:#2563EB;stroke-width:0.5;" x1="156" x2="429" y1="161.375" y2="161.375"/><line style="stroke:#2563EB;stroke-width:0.5;" x1="156" x2="429" y1="113.9766" y2="113.9766"/><text fill="#0F172A" font-family="sans-serif" font-size="14" lengthAdjust="spacing" textLength="99.6953" x="242.6523" y="106.0234">Checking Auth</text><text fill="#0F172A" font-family="sans-serif" font-size="12" lengthAdjust="spacing" textLength="257.4902" x="161" y="128.0781">App.js subscribes to subscribeToAuthState()</text><text fill="#0F172A" font-family="sans-serif" font-size="12" lengthAdjust="spacing" textLength="208.0547" x="161" y="142.2109">shows a spinner while the persisted</text><text fill="#0F172A" font-family="sans-serif" font-size="12" lengthAdjust="spacing" textLength="223.002" x="161" y="156.3438">session is restored from AsyncStorage</text></g><!--cluster SignedOut--><g class="cluster" data-entity="SignedOut" data-source-line="28" data-uid="ent0003" id="cluster_SignedOut"><path d="M154.5,251.4883 L394.5,251.4883 A12.5,12.5 0 0 1 407,263.9883 L407,306.2422 L142,306.2422 L142,263.9883 A12.5,12.5 0 0 1 154.5,251.4883" fill="#EFF6FF"/><rect fill="none" height="92" rx="12.5" ry="12.5" style="stroke:#2563EB;stroke-width:0.5;" width="265" x="142" y="251.4883"/><line style="stroke:#2563EB;stroke-width:0.5;" x1="142" x2="407" y1="306.2422" y2="306.2422"/><line style="stroke:#2563EB;stroke-width:0.5;" x1="142" x2="407" y1="272.9766" y2="272.9766"/><text fill="#0F172A" font-family="sans-serif" font-size="14" lengthAdjust="spacing" textLength="74.8467" x="237.0767" y="265.0234">Signed Out</text><text fill="#0F172A" font-family="sans-serif" font-size="12" lengthAdjust="spacing" textLength="70.5059" x="147" y="287.0781">LoginScreen</text><text fill="#0F172A" font-family="sans-serif" font-size="12" lengthAdjust="spacing" textLength="249.3574" x="147" y="301.2109">email/password sign-in, sign-up, or guest</text></g><!--cluster SignedIn--><g class="cluster" data-entity="SignedIn" data-source-line="36" data-uid="ent0004" id="cluster_SignedIn"><path d="M26.5,380.4883 L760.5,380.4883 A12.5,12.5 0 0 1 773,392.9883 L773,401.9766 L14,401.9766 L14,392.9883 A12.5,12.5 0 0 1 26.5,380.4883" fill="#EFF6FF"/><rect fill="none" height="606" rx="12.5" ry="12.5" style="stroke:#2563EB;stroke-width:0.5;" width="759" x="14" y="380.4883"/><line style="stroke:#2563EB;stroke-width:0.5;" x1="14" x2="773" y1="401.9766" y2="401.9766"/><text fill="#0F172A" font-family="sans-serif" font-size="14" lengthAdjust="spacing" textLength="178.3018" x="304.3491" y="394.0234">Signed In &#8212; AppNavigator</text></g><ellipse cx="412" cy="51.4883" fill="#222222" rx="10" ry="10" style="stroke:#222222;stroke-width:1;"/><g class="entity" data-entity="GMN2" data-source-line="77" data-uid="ent0003" id="entity_GMN2"><path d="M782.5,412.4883 L782.5,483.7305 L1081.2544,483.7305 L1081.2544,422.4883 L1071.2544,412.4883 L782.5,412.4883" fill="#FEFFDD" style="stroke:#181818;stroke-width:0.5;"/><path d="M1071.2544,412.4883 L1071.2544,422.4883 L1081.2544,422.4883 L1071.2544,412.4883" fill="#FEFFDD" style="stroke:#181818;stroke-width:1;"/><text fill="#000000" font-family="sans-serif" font-size="13" lengthAdjust="spacing" textLength="277.7544" x="788.5" y="430.0566">Every data-driven screen opens its Firestore</text><text fill="#000000" font-family="sans-serif" font-size="13" lengthAdjust="spacing" textLength="256.9023" x="788.5" y="445.3672">subscription in useEffect and returns the</text><text fill="#000000" font-family="sans-serif" font-size="13" lengthAdjust="spacing" textLength="258.0703" x="788.5" y="460.6777">unsubscribe handle, so listeners are torn</text><text fill="#000000" font-family="sans-serif" font-size="13" lengthAdjust="spacing" textLength="269.1724" x="788.5" y="475.9883">down on unmount &#8212; no leaks across tabs.</text></g><g class="entity" data-entity="GMN5" data-source-line="84" data-uid="ent0006" id="entity_GMN5"><path d="M438.5,150.4883 L438.5,206.4199 L733.522,206.4199 L733.522,160.4883 L723.522,150.4883 L438.5,150.4883" fill="#FEFFDD" style="stroke:#181818;stroke-width:0.5;"/><path d="M723.522,150.4883 L723.522,160.4883 L733.522,160.4883 L723.522,150.4883" fill="#FEFFDD" style="stroke:#181818;stroke-width:1;"/><text fill="#000000" font-family="sans-serif" font-size="13" lengthAdjust="spacing" textLength="274.022" x="444.5" y="168.0566">A Quick Action fired before the navigator is</text><text fill="#000000" font-family="sans-serif" font-size="13" lengthAdjust="spacing" textLength="254.7188" x="444.5" y="183.3672">ready is queued in a ref and replayed on</text><text fill="#000000" font-family="sans-serif" font-size="13" lengthAdjust="spacing" textLength="199.0562" x="444.5" y="198.6777">NavigationContainer.onReady().</text></g><g id="SignedIn.GroupSub"><rect fill="#F8FAFC" height="81.2422" rx="12.5" ry="12.5" style="stroke:#2563EB;stroke-width:0.5;" width="265.8066" x="498" y="407.4883"/><line style="stroke:#2563EB;stroke-width:0.5;" x1="498" x2="763.8066" y1="450.4648" y2="450.4648"/><text fill="#0F172A" font-family="sans-serif" font-size="14" lengthAdjust="spacing" textLength="192.8828" x="534.4619" y="426.0234">subscribeToUserGroups(uid)</text><text fill="#0F172A" font-family="sans-serif" font-size="14" lengthAdjust="spacing" textLength="115.6436" x="534.4619" y="442.5117">&#8594; groupIds (live)</text><text fill="#0F172A" font-family="sans-serif" font-size="12" lengthAdjust="spacing" textLength="221.0273" x="503" y="467.0664">Add Expense resolves each group doc</text><text fill="#0F172A" font-family="sans-serif" font-size="12" lengthAdjust="spacing" textLength="245.8066" x="503" y="481.1992">to offer active (non-archived) destinations</text></g><g id="SignedIn.Home"><rect fill="#EFF6FF" height="64.7539" rx="12.5" ry="12.5" style="stroke:#2563EB;stroke-width:0.5;" width="224.4453" x="358" y="525.4883"/><line style="stroke:#2563EB;stroke-width:0.5;" x1="358" x2="582.4453" y1="551.9766" y2="551.9766"/><text fill="#0F172A" font-family="sans-serif" font-size="14" lengthAdjust="spacing" textLength="39.7578" x="450.3438" y="544.0234">Home</text><text fill="#0F172A" font-family="sans-serif" font-size="12" lengthAdjust="spacing" textLength="204.4453" x="363" y="568.5781">month-to-date, today, budget bar,</text><text fill="#0F172A" font-family="sans-serif" font-size="12" lengthAdjust="spacing" textLength="139.1719" x="363" y="582.7109">3 most recent expenses</text></g><g id="SignedIn.Add"><rect fill="#EFF6FF" height="78.8867" rx="12.5" ry="12.5" style="stroke:#2563EB;stroke-width:0.5;" width="243.1953" x="326.5" y="645.4883"/><line style="stroke:#2563EB;stroke-width:0.5;" x1="326.5" x2="569.6953" y1="671.9766" y2="671.9766"/><text fill="#0F172A" font-family="sans-serif" font-size="14" lengthAdjust="spacing" textLength="88.1221" x="404.0366" y="664.0234">Add Expense</text><text fill="#0F172A" font-family="sans-serif" font-size="12" lengthAdjust="spacing" textLength="160.9395" x="331.5" y="688.5781">amount + category + notes</text><text fill="#0F172A" font-family="sans-serif" font-size="12" lengthAdjust="spacing" textLength="223.1953" x="331.5" y="702.7109">ticks the active groups to share it with</text><text fill="#0F172A" font-family="sans-serif" font-size="12" lengthAdjust="spacing" textLength="218.0273" x="331.5" y="716.8438">(personal-only when none are ticked)</text></g><g id="SignedIn.Summary"><rect fill="#EFF6FF" height="50.6211" rx="12.5" ry="12.5" style="stroke:#2563EB;stroke-width:0.5;" width="224.6445" x="22.5" y="659.4883"/><line style="stroke:#2563EB;stroke-width:0.5;" x1="22.5" x2="247.1445" y1="685.9766" y2="685.9766"/><text fill="#0F172A" font-family="sans-serif" font-size="14" lengthAdjust="spacing" textLength="63.1436" x="103.2505" y="678.0234">Summary</text><text fill="#0F172A" font-family="sans-serif" font-size="12" lengthAdjust="spacing" textLength="204.6445" x="27.5" y="702.5781">daily / weekly / monthly bar charts</text></g><g id="SignedIn.History"><rect fill="#EFF6FF" height="64.7539" rx="12.5" ry="12.5" style="stroke:#2563EB;stroke-width:0.5;" width="188.8672" x="189.5" y="779.4883"/><line style="stroke:#2563EB;stroke-width:0.5;" x1="189.5" x2="378.3672" y1="805.9766" y2="805.9766"/><text fill="#0F172A" font-family="sans-serif" font-size="14" lengthAdjust="spacing" textLength="48.3506" x="259.7583" y="798.0234">History</text><text fill="#0F172A" font-family="sans-serif" font-size="12" lengthAdjust="spacing" textLength="168.8672" x="194.5" y="822.5781">filters + category breakdown</text><text fill="#0F172A" font-family="sans-serif" font-size="12" lengthAdjust="spacing" textLength="119.1152" x="194.5" y="836.7109">long-press to delete</text></g><g id="SignedIn.Group"><rect fill="#EFF6FF" height="78.8867" rx="12.5" ry="12.5" style="stroke:#2563EB;stroke-width:0.5;" width="263.6211" x="501" y="899.4883"/><line style="stroke:#2563EB;stroke-width:0.5;" x1="501" x2="764.6211" y1="925.9766" y2="925.9766"/><text fill="#0F172A" font-family="sans-serif" font-size="14" lengthAdjust="spacing" textLength="41.9453" x="611.8379" y="918.0234">Group</text><text fill="#0F172A" font-family="sans-serif" font-size="12" lengthAdjust="spacing" textLength="215.1914" x="506" y="942.5781">one collapsible card per active group</text><text fill="#0F172A" font-family="sans-serif" font-size="12" lengthAdjust="spacing" textLength="243.6211" x="506" y="956.7109">invite code &#183; members &#183; member pie chart</text><text fill="#0F172A" font-family="sans-serif" font-size="12" lengthAdjust="spacing" textLength="168.0527" x="506" y="970.8438">owner only: rename &#183; archive</text></g><ellipse cx="470" cy="445.9883" fill="#222222" rx="10" ry="10" style="stroke:#222222;stroke-width:1;"/><g class="link" data-entity-1=".start." data-entity-2="CheckingAuth" data-uid="lnk3" id="link_.start._CheckingAuth"><polygon fill="#475569" points="412,92.2404,416,83.2404,412,87.2404,408,83.2404,412,92.2404" style="stroke:#475569;stroke-width:1;"/><path d="M412,65.8394 C412,71.6974 412,79.4337 412,88.1087 C412,89.1931 412,90.2922 412,91.4041 C412,91.682 412,85.9608 412,86.2404" fill="none" style="stroke:#475569;stroke-width:1;"/></g><g class="link" data-entity-1="CheckingAuth" data-entity-2="SignedOut" data-uid="lnk4" id="link_CheckingAuth_SignedOut"><polygon fill="#475569" points="311.5885,251.3344,316.8844,243.0305,312.3332,246.3901,308.9736,241.839,311.5885,251.3344" style="stroke:#475569;stroke-width:1;"/><path d="M349.8439,198.6864 C349.6007,198.8222 349.3579,198.9589 349.1155,199.0966 C348.6308,199.3719 348.1479,199.6508 347.6671,199.9335 C346.7053,200.4989 345.7515,201.0792 344.8074,201.6748 C342.9192,202.866 341.0695,204.1182 339.2713,205.4345 C332.0787,210.6996 325.711,216.9888 321,224.4883 C316.7236,231.296 313.9917,238.9292 312.3798,246.8513 C312.1783,247.8415 311.9944,248.8363 311.8271,249.8345 C311.7434,250.3337 312.5576,244.9006 312.4822,245.4013" fill="none" style="stroke:#475569;stroke-width:1;"/><text fill="#000000" font-family="sans-serif" font-size="13" lengthAdjust="spacing" textLength="165.1152" x="323" y="239.0566">onAuthStateChanged(null)</text></g><g class="link" data-entity-1="CheckingAuth" data-entity-2="SignedIn" data-uid="lnk5" id="link_CheckingAuth_SignedIn"><polygon fill="#475569" points="451.1179,380.3713,460.3403,376.9148,454.6836,376.8662,454.7322,371.2096,451.1179,380.3713" style="stroke:#475569;stroke-width:1;"/><path d="M422.212,198.5382 C422.3444,198.7132 422.478,198.8876 422.6128,199.0613 C424.7698,201.8408 427.2377,204.4439 430,206.4883 C452.3787,223.0504 473.381,202.1518 490,224.4883 C512.7928,255.1226 625.8593,198.216 482,372.4883 C477.4708,377.975 472.2333,377.4567 466.8719,376.8259 C464.1912,376.5105 461.4795,376.167 458.8098,376.5319 C457.475,376.7143 456.1506,377.0739 454.846,377.7026 C454.1936,378.0169 453.5462,378.3986 452.9048,378.859 C452.5841,379.0892 452.265,379.3392 451.9474,379.6102 C451.7887,379.7458 451.6303,379.8866 451.4724,380.0329 C451.3935,380.106 451.3146,380.1805 451.2359,380.2564 C451.1965,380.2944 455.4361,376.1266 455.3968,376.1652" fill="none" style="stroke:#475569;stroke-width:1;"/><text fill="#000000" font-family="sans-serif" font-size="13" lengthAdjust="spacing" textLength="168.7207" x="555" y="328.5566">onAuthStateChanged(user)</text></g><g class="link" data-entity-1="SignedOut" data-entity-2="SignedIn" data-uid="lnk6" id="link_SignedOut_SignedIn"><polygon fill="#475569" points="259.6073,380.1143,257.0771,370.5959,256.471,376.2202,250.8467,375.614,259.6073,380.1143" style="stroke:#475569;stroke-width:1;"/><path d="M262.8975,343.6598 C261.7566,344.6062 260.6585,345.5988 259.6112,346.6401 C257.5165,348.7226 255.625,350.9993 254,353.4883 C249.3836,360.5591 249.3075,365.4676 254,372.4883 C255.2803,374.4038 256.62,376.2702 258.0149,378.0887 C258.3636,378.5433 258.7158,378.9949 259.0714,379.4435 C259.2492,379.6678 255.6642,375.2186 255.8437,375.4414" fill="none" style="stroke:#475569;stroke-width:1;"/><text fill="#000000" font-family="sans-serif" font-size="13" lengthAdjust="spacing" textLength="154.4131" x="256" y="368.0566">sign in / sign up / guest</text></g><g class="link" data-entity-1="SignedOut" data-entity-2="SignedIn" data-uid="lnk8" id="link_SignedOut_SignedIn"><polygon fill="#475569" points="400.3173,343.6466,405.5866,351.9673,404.4774,346.4202,410.0245,345.311,400.3173,343.6466" style="stroke:#475569;stroke-width:1;"/><path d="M405.3094,346.975 C405.5272,347.1218 401.0792,344.1608 401.2953,344.3099 C401.7274,344.608 402.1561,344.9106 402.5812,345.2177 C405.9819,347.6743 409.1515,350.4199 412,353.4883 C417.3609,359.2628 421.4923,366.091 424.6655,373.387 C425.4588,375.2111 426.1922,377.0643 426.8699,378.9377 C427.0393,379.406 427.2053,379.8756 427.3679,380.3463" fill="none" style="stroke:#475569;stroke-width:1;"/><text fill="#000000" font-family="sans-serif" font-size="13" lengthAdjust="spacing" textLength="51.5874" x="425" y="368.0566">sign out</text></g><g class="link" data-entity-1=".start.SignedIn" data-entity-2="Home" data-uid="lnk10" id="link_.start.SignedIn_Home"><polygon fill="#475569" points="470,525.1165,474,516.1165,470,520.1165,466,516.1165,470,525.1165" style="stroke:#475569;stroke-width:1;"/><path d="M470,460.1394 C470,475.3376 470,497.1741 470,519.1165" fill="none" style="stroke:#475569;stroke-width:1;"/></g><g class="link" data-entity-1="Home" data-entity-2="Add" data-uid="lnk11" id="link_Home_Add"><polygon fill="#475569" points="395.5552,645.2244,393.0523,635.6989,392.43,641.3214,386.8075,640.6991,395.5552,645.2244" style="stroke:#475569;stroke-width:1;"/><path d="M403.7644,590.5867 C397.9169,595.7887 392.7889,601.7324 389,608.4883 C381.9206,621.1113 382.7169,629.1907 391.805,640.5408" fill="none" style="stroke:#475569;stroke-width:1;"/><text fill="#000000" font-family="sans-serif" font-size="13" lengthAdjust="spacing" textLength="115.8638" x="391" y="623.0566">tab / Quick Action</text></g><g class="link" data-entity-1="Home" data-entity-2="Summary" data-uid="lnk12" id="link_Home_Summary"><polygon fill="#475569" points="167.4877,659.3215,177.1386,657.3565,171.5598,656.42,172.4963,650.8412,167.4877,659.3215" style="stroke:#475569;stroke-width:1;"/><path d="M357.8532,577.3744 C324.0574,584.8766 287.3627,595.0362 255,608.4883 C223.4074,621.6203 195.6311,639.2686 172.3742,655.8397" fill="none" style="stroke:#475569;stroke-width:1;"/><text fill="#000000" font-family="sans-serif" font-size="13" lengthAdjust="spacing" textLength="20.2236" x="257" y="623.0566">tab</text></g><g class="link" data-entity-1="Home" data-entity-2="History" data-uid="lnk13" id="link_Home_History"><polygon fill="#475569" points="277.1291,779.3982,279.6056,769.8658,276.3125,774.4654,271.713,771.1723,277.1291,779.3982" style="stroke:#475569;stroke-width:1;"/><path d="M361.7017,590.5136 C335.4062,603.3521 310.2213,621.1124 294,645.4883 C267.3683,685.508 270.2473,737.8239 276.1492,773.4788" fill="none" style="stroke:#475569;stroke-width:1;"/><text fill="#000000" font-family="sans-serif" font-size="13" lengthAdjust="spacing" textLength="20.2236" x="296" y="690.0566">tab</text></g><g class="link" data-entity-1="Home" data-entity-2="Group" data-uid="lnk14" id="link_Home_Group"><polygon fill="#475569" points="636.0564,899.3143,641.126,890.8704,636.6673,894.3518,633.1859,889.893,636.0564,899.3143" style="stroke:#475569;stroke-width:1;"/><path d="M582.2183,565.993 C637.3914,575.7842 699.331,597.6465 734,645.4883 C754.6027,673.9192 752.9233,694.9129 734,724.4883 C723.7111,740.5688 707.6273,728.1706 695,742.4883 C655.7858,786.9519 642.0873,850.3211 636.7894,893.3593" fill="none" style="stroke:#475569;stroke-width:1;"/><text fill="#000000" font-family="sans-serif" font-size="13" lengthAdjust="spacing" textLength="20.2236" x="697" y="757.0566">tab</text></g><g class="link" data-entity-1="Add" data-entity-2="Home" data-uid="lnk15" id="link_Add_Home"><polygon fill="#475569" points="501.3702,590.7324,502.9912,600.447,504.1252,594.9049,509.6673,596.039,501.3702,590.7324" style="stroke:#475569;stroke-width:1;"/><path d="M497.0696,645.1892 C501.4654,639.7202 505.2768,633.7932 508,627.4883 C513.3385,615.1282 512.1711,607.0907 504.6762,595.7394" fill="none" style="stroke:#475569;stroke-width:1;"/><text fill="#000000" font-family="sans-serif" font-size="13" lengthAdjust="spacing" textLength="20.2236" x="512" y="623.0566">tab</text></g><g class="link" data-entity-1="Summary" data-entity-2="History" data-uid="lnk16" id="link_Summary_History"><polygon fill="#475569" points="246.4055,779.4493,242.0814,770.6005,242.575,776.2357,236.9397,776.7293,246.4055,779.4493" style="stroke:#475569;stroke-width:1;"/><path d="M164.4376,710.6843 C187.9302,730.3928 216.4021,754.2786 241.8089,775.593" fill="none" style="stroke:#475569;stroke-width:1;"/><text fill="#000000" font-family="sans-serif" font-size="13" lengthAdjust="spacing" textLength="20.2236" x="225" y="757.0566">tab</text></g><g class="link" data-entity-1="History" data-entity-2="Group" data-uid="lnk17" id="link_History_Group"><polygon fill="#475569" points="525.3143,899.4189,518.1901,892.6184,520.6071,897.7329,515.4926,900.1499,525.3143,899.4189" style="stroke:#475569;stroke-width:1;"/><path d="M372.0674,844.5311 C418.6124,861.2019 470.4848,879.7808 519.6656,897.3957" fill="none" style="stroke:#475569;stroke-width:1;"/><text fill="#000000" font-family="sans-serif" font-size="13" lengthAdjust="spacing" textLength="20.2236" x="470" y="877.0566">tab</text></g><g class="link" data-entity-1="Group" data-entity-2="Home" data-uid="lnk18" id="link_Group_Home"><polygon fill="#475569" points="582.0297,567.6211,590.2748,573.008,586.9654,568.4202,591.5533,565.1108,582.0297,567.6211" style="stroke:#475569;stroke-width:1;"/><path d="M667.3001,899.0927 C712.4322,842.9574 782.0373,736.0256 746,645.4883 C737.6287,624.4569 730.779,619.4967 711,608.4883 C671.9048,586.7291 630.3762,575.4479 587.9526,568.58" fill="none" style="stroke:#475569;stroke-width:1;"/><text fill="#000000" font-family="sans-serif" font-size="13" lengthAdjust="spacing" textLength="20.2236" x="752" y="757.0566">tab</text></g><g class="link" data-entity-1="Add" data-entity-2="Add" data-uid="lnk19" id="link_Add_Add"><polygon fill="#475569" points="569.963,694.734,579.5517,696.9825,574.875,693.8001,578.0574,689.1233,569.963,694.734" style="stroke:#475569;stroke-width:1;"/><path d="M569.963,675.2425 C580.7438,677.2924 587.5,680.541 587.5,684.9883 C587.5,689.4355 586.6382,691.5634 575.8574,693.6133" fill="none" style="stroke:#475569;stroke-width:1;"/><text fill="#000000" font-family="sans-serif" font-size="13" lengthAdjust="spacing" textLength="133.6753" x="589.5" y="682.5566">save &#8594; confirmation,</text><text fill="#000000" font-family="sans-serif" font-size="13" lengthAdjust="spacing" textLength="72.2554" x="620.21" y="697.8672">form resets</text></g><g class="link" data-entity-1="SignedIn" data-entity-2="GMN2" data-uid="lnk4" id="link_SignedIn_GMN2"><path d="M443.6677,380.2197 C443.773,380.0212 443.8793,379.8235 443.9866,379.6264 C444.4159,378.8381 444.8617,378.061 445.3245,377.2963 C449.0267,371.1784 453.8179,365.8556 460,361.9883 C489.013,343.8387 734.7708,353.8042 768,361.9883 C807.9573,371.8294 848.9573,393.3294 879.968,412.3691" fill="none" style="stroke:#475569;stroke-width:1;stroke-dasharray:7,7;"/></g><g class="link" data-entity-1="GMN5" data-entity-2="CheckingAuth" data-uid="lnk7" id="link_GMN5_CheckingAuth"><path d="M438.2954,178.4883 C435.2722,178.4883 432.249,178.4883 429.2258,178.4883 C429.1786,178.4883 429.1314,178.4883 429.0841,178.4883 C429.0605,178.4883 429.0369,178.4883 429.0133,178.4883" fill="none" style="stroke:#475569;stroke-width:1;stroke-dasharray:7,7;"/></g><!--SRC=[TLRDaXir4BxxAPgb2cpmx9BTh4DyeCfnx90g2WeSJeI3PjGUYzL84qbZuwAeuiG3KBmBTnubJy8dpTWUEyjULcxrVtzVQpwgdIWhGLhiRHF8Lno44ODFQLMpaIiZQdh_nz_qnjQPvYrh4dMjLI62iePy486f4iL66PvIs3299coeZ69bQ5RNrxzuE1D6fjlSXc2hB8YSZDYgidMZ0ZL6s-B1Nmy6GGND5z5NASvB9KedgYdDOenNKVG9VNjqCnZu1sLg0HNAHV5GEjiOERVQElfucVvw6duZfDqfKz9QQC-zcvbpTjUPFNrsVpzvtZTBcVms87fn6MAnN4uG0ZVMINQTzFP-ShTu0UdIcj39lbW-UNOxWmnrkOFmoMHszpGA5qUFB-Utazl9uFV1uAVFVgOi-uhc6owGInaxW7fJCbS7OUhB5Gb_feRQ5yldyxkKzDd5j9iF-IRtXLCvUmhszEkDZMgfzyFHXyP-OtUU1FbQ6SEETXk5mSKfr-oyye7b8qRiVHgv9yS-MCUIriwYwtvlYXK4ekHOyPbTB7sbIiFoEs1qIjOSCvjlX2bP3asZzUZ_h5wRnuqQpsvqx6EhImYHcdWA63lN3_-DBPLP5OxPNDnm9PI-gONtEu20FAuoPSRjeQd7XB6M3GgF9PuCCwVAJJXFDvf43jsqfwR6gJKzAi7ZHMEIAdXyMHEK8uymxuulrlLgn6qiyG2ohst50_pkNFJmy2FwzGgOh_smKNBqrhp_yo-A9AXVIqz3hROyIdwJqgh90RulbxFb7DwE8i1EIbhy2ePxZYYmUWlaCRP8wukaBSuDW4gxNWDZeWY8GKDZJIOSriwMvOWakg9CMWB-b7WgWz8_kAX0lqqMR2PnDuP7AVPZoXjPSi2wSEEJwXsKVK1c1Pj0t2RQStpLopzLYz-uZD8fYGeh8T3dX1N9fNLx78qDi3ze18L5r-xAjffKT4kzZN0Sr-5EWTy7Ws7aapL2PzReFNZ61YuDxA4SlQ47f-nMJLK9ju_0R4_m887AFV2pOtv8XzGDd50u5GWQ-drJaPVHGNU2WxNI0KdqoyeTYmUiK7EcgAqfinf3JVL8rXnwM4eZFOmsKPAfi5gBsgiSowCG84rzcdDveQ_CLeLe8fd-_OSghlAOrV58jUAsddwGNTnEiNLJpDI8Ajbsw1aSnXw1tyq7ZzCDVT-WiJGhqilIqpar5NhzYrCFBYuEURJY6ED0igFmuFHHFztl3rsrlowSzKAqvNY1HaQU5jQibQiIJSPlpTgwAhAFCNiieuXHIci8L3lkXVWSRHdHmHgHIOUEuTLFcuzi9030wccfkbqU1zrkYxfzsB6tF2z0tIAaRm37eN4ceH-wZJdk5i96bXh4z9PqV3jC76m2k7KnZOWq314sBS7YEZFG1GYXLpWR4IToV47Wmo4nhgj9ypgLTFPqeabd4mR0uqkKCxhIlc7ci2VnL44TO9Vx-6gzQxY19YeJ4AwxgcfyFa6Qe7Bw8fc3PG9VHkxQcX-YW-6ebzv_]--></g></svg>